<svg width="198" height="415" viewBox="0 0 198 415" fill="none" xmlns="http://www.w3.org/2000/svg">
<path d="M-177.821 188.411C-177.821 236.854 -164.656 293.262 -129.403 328.515C-94.3789 363.54 -38.4397 375.822 9.58927 375.822C56.2783 375.822 102.128 362.027 135.67 328.515C172.078 292.144 197 240.275 197 188.411C197 137.72 170.38 98.1512 135.67 63.4416C100.738 28.5097 60.6811 1.0002 9.58927 1.0002C-42.4658 1.0002 -93.0575 27.0648 -129.403 63.4416C-162.897 96.9656 -177.821 141.493 -177.821 188.411Z" stroke="white" stroke-opacity="0.3" stroke-width="0.7" stroke-miterlimit="10"/>
<path d="M5.28542 23.0819C46.843 23.2857 84.8377 54.3335 115.496 85.0232C145.544 115.102 175.598 151.948 175.659 193.456C175.727 239.355 150.07 291.453 115.49 325.996C85.9616 355.481 43.4777 364.021 5.28542 363.83C-36.1734 363.626 -92.4399 358.939 -125.507 326.02C-158.852 292.811 -164.879 235.792 -165.089 193.456C-165.28 154.868 -154.696 114.28 -125.482 85.0232C-91.106 50.6038 -39.9093 22.8658 5.28542 23.0819Z" stroke="white" stroke-opacity="0.3" stroke-width="0.7" stroke-miterlimit="10"/>
<path d="M-159.568 206.961C-159.21 244.505 -155.555 297.227 -125.056 327.577C-94.9781 357.507 -42.6143 360.051 -6.23129 360.304C72.0428 360.835 147.736 280.542 147.1 206.967C146.797 171.152 118.46 137.307 91.8336 110.687C64.5587 83.4056 29.5404 54.0744 -6.23129 53.6298C-76.1012 52.7591 -160.309 129.514 -159.568 206.961Z" stroke="white" stroke-opacity="0.3" stroke-width="0.7" stroke-miterlimit="10"/>
<path d="M-23.3605 90.7413C8.42213 90.7969 40.6308 116.151 64.7935 140.314C88.771 164.298 112.674 195.302 112.958 227.042C113.489 291.546 46.6329 363.984 -23.342 363.342C-55.7668 363.04 -101.406 359.637 -127.965 333.085C-154.807 306.248 -159.327 260.362 -159.642 227.042C-160.309 157.845 -85.5673 90.6302 -23.3605 90.7413Z" stroke="white" stroke-opacity="0.3" stroke-width="0.7" stroke-miterlimit="10"/>
<path d="M-163.748 251.81C-163.619 281.505 -157.048 319.179 -133.979 342.217C-110.909 365.256 -73.8651 370.771 -44.4413 371.073C18.2718 371.691 74.9396 310.879 74.8161 251.81C74.705 197.914 8.61415 132.632 -44.4413 132.552C-101.819 132.435 -164.045 189.955 -163.748 251.81Z" stroke="white" stroke-opacity="0.3" stroke-width="0.7" stroke-miterlimit="10"/>
<path d="M-68.0112 177.166C-16.8761 177.166 34.191 227.992 34.2157 279.393C34.2157 333.733 -12.8562 381.645 -68.0112 381.614C-125.667 381.614 -170.201 337.197 -170.232 279.393C-170.263 224.534 -121.629 177.141 -68.0112 177.166Z" stroke="white" stroke-opacity="0.3" stroke-width="0.7" stroke-miterlimit="10"/>
<path d="M-169.484 398.36C-169.114 368.047 -149.724 335.468 -136.874 309.014C-118.967 272.162 -99.4723 236.075 -80.1693 199.939C-60.2302 162.624 -40.1183 125.364 -21.6737 87.2708C-9.24343 61.5149 8.9666 30.3868 9.59027 1.00005" stroke="white" stroke-opacity="0.3" stroke-width="0.7" stroke-miterlimit="10"/>
<path d="M-169.485 398.36C-165.175 454.861 17.2649 320.5 38.303 373.92" stroke="white" stroke-opacity="0.3" stroke-width="0.7" stroke-miterlimit="10"/>
<path d="M-169.486 398.36C-152.634 414.959 -116.881 400.213 -98.4734 393.982C-70.2723 384.386 -42.8986 372.45 -15.2594 361.403C28.8856 343.761 85.7757 317.085 134.472 329.695" stroke="white" stroke-opacity="0.3" stroke-width="0.7" stroke-miterlimit="10"/>
<path d="M-169.486 398.36C-142.378 402.961 -108.138 380.706 -85.7412 368.56C-52.526 350.548 -20.3605 330.59 11.8853 310.984C44.6806 291.045 77.4945 270.952 111.525 253.162C135.978 240.38 164.932 224.177 193.319 223.522" stroke="white" stroke-opacity="0.3" stroke-width="0.7" stroke-miterlimit="10"/>
<path d="M-169.486 398.36C-139.568 384.923 -113.293 358.84 -88.5317 337.901C-56.9035 311.169 -25.8371 283.777 5.36506 256.552C60.7053 208.27 115.866 155.869 178.407 116.861" stroke="white" stroke-opacity="0.3" stroke-width="0.7" stroke-miterlimit="10"/>
<path d="M-169.485 398.36C-127.884 334.449 -76.7371 275.725 -29.906 215.661C16.0729 156.653 62.6447 97.8917 106.197 37.0311" stroke="white" stroke-opacity="0.3" stroke-width="0.7" stroke-miterlimit="10"/>
</svg>
