<svg width="176" height="357" viewBox="0 0 176 357" fill="none" xmlns="http://www.w3.org/2000/svg">
<path d="M172.459 211.112L23.9836 184.929C24.2593 183.806 24.4631 182.667 24.5938 181.518L173.072 207.701C172.88 208.84 172.671 209.974 172.459 211.112Z" fill="url(#paint0_linear_156_1888)" fill-opacity="0.3" stroke="#0D0D0E"/>
<path d="M150.771 268.995L20.1877 193.603C20.8284 192.639 21.4069 191.636 21.9196 190.598L152.501 265.989C151.932 266.998 151.359 268.002 150.771 268.995Z" fill="url(#paint1_linear_156_1888)" fill-opacity="0.3" stroke="#0D0D0E"/>
<path d="M132.703 294.204L17.2373 197.315C18.0307 196.477 18.7707 195.59 19.453 194.659L134.953 291.577C134.348 292.306 133.73 293.019 133.108 293.737C132.973 293.892 132.838 294.048 132.703 294.204Z" fill="url(#paint2_linear_156_1888)" fill-opacity="0.3" stroke="#0D0D0E"/>
<path d="M110.578 315.953L13.6584 200.452C14.5895 199.77 15.4769 199.03 16.3153 198.237L113.205 313.704C113.188 313.719 113.17 313.734 113.153 313.749C112.3 314.492 111.45 315.233 110.578 315.953Z" fill="url(#paint3_linear_156_1888)" fill-opacity="0.3" stroke="#0D0D0E"/>
<path d="M164.175 241.005L22.4649 189.427C22.9292 188.37 23.3252 187.284 23.6505 186.177L165.352 237.751C164.969 238.839 164.578 239.916 164.175 241.005Z" fill="url(#paint4_linear_156_1888)" fill-opacity="0.3" stroke="#0D0D0E"/>
<path d="M26.7018 354.075L0.518267 205.594C1.66715 205.464 2.8065 205.26 3.92943 204.984L30.112 353.459C30.0364 353.474 29.9608 353.488 29.8852 353.502C28.8216 353.702 27.7641 353.901 26.7018 354.075Z" fill="url(#paint5_linear_156_1888)" fill-opacity="0.3" stroke="#0D0D0E"/>
<path d="M84.9881 333.506L9.59829 202.926C10.6358 202.413 11.6395 201.834 12.6032 201.194L87.9938 331.776C87.0007 332.36 85.9976 332.933 84.9881 333.506Z" fill="url(#paint6_linear_156_1888)" fill-opacity="0.3" stroke="#0D0D0E"/>
<path d="M56.7512 346.352L5.17743 204.65C6.28476 204.324 7.37021 203.928 8.42721 203.464L60.006 345.176C58.9273 345.579 57.8416 345.969 56.7512 346.352Z" fill="url(#paint7_linear_156_1888)" fill-opacity="0.3" stroke="#0D0D0E"/>
<path d="M134.954 65.4219L19.453 162.341C18.7707 161.41 18.0307 160.523 17.2373 159.684L132.704 62.7943C132.718 62.8101 132.732 62.8258 132.746 62.8416C133.49 63.6959 134.232 64.5477 134.954 65.4219Z" fill="url(#paint8_linear_156_1888)" fill-opacity="0.3" stroke="#0D0D0E"/>
<path d="M87.9945 25.2287L12.6032 155.812C11.6395 155.171 10.6358 154.593 9.59829 154.08L84.9888 23.4984C85.9982 24.0678 87.0015 24.6408 87.9945 25.2287Z" fill="url(#paint9_linear_156_1888)" fill-opacity="0.3" stroke="#0D0D0E"/>
<path d="M113.204 43.2978L16.3153 158.763C15.4769 157.97 14.5895 157.23 13.6584 156.548L110.577 41.0473C111.305 41.6512 112.017 42.2683 112.734 42.8901C112.89 43.0258 113.047 43.1617 113.204 43.2978Z" fill="url(#paint10_linear_156_1888)" fill-opacity="0.3" stroke="#0D0D0E"/>
<path d="M60.0054 11.8533L8.42832 153.56C7.37117 153.089 6.28499 152.686 5.17643 152.353L56.7511 10.6759C57.8391 11.059 58.9168 11.4497 60.0054 11.8533Z" fill="url(#paint11_linear_156_1888)" fill-opacity="0.3" stroke="#0D0D0E"/>
<path d="M30.112 3.54109L3.92943 152.016C2.8065 151.74 1.66715 151.536 0.518268 151.406L26.7013 2.92805C27.8406 3.11934 28.9748 3.32875 30.112 3.54109Z" fill="url(#paint12_linear_156_1888)" fill-opacity="0.3" stroke="#0D0D0E"/>
<path d="M173.074 149.299L24.5938 175.482C24.4631 174.333 24.2593 173.194 23.9836 172.071L172.459 145.888C172.473 145.963 172.487 146.037 172.501 146.111C172.701 147.176 172.901 148.235 173.074 149.299Z" fill="url(#paint13_linear_156_1888)" fill-opacity="0.3" stroke="#0D0D0E"/>
<path d="M165.352 119.25L23.6505 170.823C23.3252 169.716 22.9292 168.63 22.4649 167.574L164.176 115.995C164.579 117.074 164.969 118.159 165.352 119.25Z" fill="url(#paint14_linear_156_1888)" fill-opacity="0.3" stroke="#0D0D0E"/>
<path d="M152.506 91.0116L21.9259 166.401C21.4132 165.364 20.8348 164.36 20.194 163.397L150.776 88.0059C151.361 88.999 151.934 90.0021 152.506 91.0116Z" fill="url(#paint15_linear_156_1888)" fill-opacity="0.3" stroke="#0D0D0E"/>
<path d="M24.775 178.5C24.775 177.914 24.7454 177.336 24.7042 176.769H175.451C175.457 176.981 175.464 177.192 175.472 177.398L175.472 177.403C175.486 177.776 175.5 178.137 175.5 178.5C175.5 178.928 175.486 179.328 175.472 179.737C175.466 179.9 175.46 180.064 175.455 180.231H24.7042C24.7454 179.664 24.775 179.087 24.775 178.5Z" fill="url(#paint16_linear_156_1888)" fill-opacity="0.3" stroke="#0D0D0E"/>
<defs>
<linearGradient id="paint0_linear_156_1888" x1="105.989" y1="171.473" x2="102.864" y2="211.529" gradientUnits="userSpaceOnUse">
<stop stop-color="white"/>
<stop offset="1" stop-color="white" stop-opacity="0.35"/>
</linearGradient>
<linearGradient id="paint1_linear_156_1888" x1="92.9841" y1="165.361" x2="70.3802" y2="264.748" gradientUnits="userSpaceOnUse">
<stop stop-color="white"/>
<stop offset="1" stop-color="white" stop-opacity="0.35"/>
</linearGradient>
<linearGradient id="paint2_linear_156_1888" x1="82.0131" y1="162.875" x2="43.3135" y2="282.675" gradientUnits="userSpaceOnUse">
<stop stop-color="white"/>
<stop offset="1" stop-color="white" stop-opacity="0.35"/>
</linearGradient>
<linearGradient id="paint3_linear_156_1888" x1="68.4448" y1="160.862" x2="10.0432" y2="290.706" gradientUnits="userSpaceOnUse">
<stop stop-color="white"/>
<stop offset="1" stop-color="white" stop-opacity="0.35"/>
</linearGradient>
<linearGradient id="paint4_linear_156_1888" x1="101.068" y1="168.264" x2="90.3948" y2="240.212" gradientUnits="userSpaceOnUse">
<stop stop-color="white"/>
<stop offset="1" stop-color="white" stop-opacity="0.35"/>
</linearGradient>
<linearGradient id="paint5_linear_156_1888" x1="16.8432" y1="158.149" x2="-65.2217" y2="202.213" gradientUnits="userSpaceOnUse">
<stop stop-color="white"/>
<stop offset="1" stop-color="white" stop-opacity="0.35"/>
</linearGradient>
<linearGradient id="paint6_linear_156_1888" x1="52.7579" y1="159.358" x2="-26.7224" y2="283.77" gradientUnits="userSpaceOnUse">
<stop stop-color="white"/>
<stop offset="1" stop-color="white" stop-opacity="0.35"/>
</linearGradient>
<linearGradient id="paint7_linear_156_1888" x1="35.3791" y1="158.44" x2="-59.0681" y2="254.873" gradientUnits="userSpaceOnUse">
<stop stop-color="white"/>
<stop offset="1" stop-color="white" stop-opacity="0.35"/>
</linearGradient>
<linearGradient id="paint8_linear_156_1888" x1="82.0131" y1="31.0421" x2="43.3135" y2="150.842" gradientUnits="userSpaceOnUse">
<stop stop-color="white"/>
<stop offset="1" stop-color="white" stop-opacity="0.35"/>
</linearGradient>
<linearGradient id="paint9_linear_156_1888" x1="52.7579" y1="-18.3" x2="-26.7224" y2="106.112" gradientUnits="userSpaceOnUse">
<stop stop-color="white"/>
<stop offset="1" stop-color="white" stop-opacity="0.35"/>
</linearGradient>
<linearGradient id="paint10_linear_156_1888" x1="68.4448" y1="3.70377" x2="10.0432" y2="133.548" gradientUnits="userSpaceOnUse">
<stop stop-color="white"/>
<stop offset="1" stop-color="white" stop-opacity="0.35"/>
</linearGradient>
<linearGradient id="paint11_linear_156_1888" x1="35.3791" y1="-34.3063" x2="-59.0681" y2="62.1268" gradientUnits="userSpaceOnUse">
<stop stop-color="white"/>
<stop offset="1" stop-color="white" stop-opacity="0.35"/>
</linearGradient>
<linearGradient id="paint12_linear_156_1888" x1="16.8432" y1="-43.8627" x2="-65.2217" y2="0.201175" gradientUnits="userSpaceOnUse">
<stop stop-color="white"/>
<stop offset="1" stop-color="white" stop-opacity="0.35"/>
</linearGradient>
<linearGradient id="paint13_linear_156_1888" x1="105.989" y1="135.851" x2="102.864" y2="175.907" gradientUnits="userSpaceOnUse">
<stop stop-color="white"/>
<stop offset="1" stop-color="white" stop-opacity="0.35"/>
</linearGradient>
<linearGradient id="paint14_linear_156_1888" x1="101.068" y1="98.0963" x2="90.3948" y2="170.045" gradientUnits="userSpaceOnUse">
<stop stop-color="white"/>
<stop offset="1" stop-color="white" stop-opacity="0.35"/>
</linearGradient>
<linearGradient id="paint15_linear_156_1888" x1="92.9904" y1="62.7907" x2="70.3865" y2="162.178" gradientUnits="userSpaceOnUse">
<stop stop-color="white"/>
<stop offset="1" stop-color="white" stop-opacity="0.35"/>
</linearGradient>
<linearGradient id="paint16_linear_156_1888" x1="107.643" y1="174.896" x2="107.577" y2="180.743" gradientUnits="userSpaceOnUse">
<stop stop-color="white"/>
<stop offset="1" stop-color="white" stop-opacity="0.35"/>
</linearGradient>
</defs>
</svg>
