<svg width="143" height="143" viewBox="0 0 143 143" fill="none" xmlns="http://www.w3.org/2000/svg">
<g opacity="0.15" clip-path="url(#clip0_283_1799)">
<mask id="mask0_283_1799" style="mask-type:alpha" maskUnits="userSpaceOnUse" x="5" y="5" width="135" height="135">
<path d="M13.8734 110.918C31.8291 156.033 117.375 143.111 130.367 107.236L120.56 101.235L125.028 80.9575L136.437 80.5969L139.898 75.9794C139.694 31.5059 97.4056 8.54519 79.894 6.12098C45.8761 1.41172 -16.4861 34.639 13.8734 110.918Z" fill="white"/>
</mask>
<g mask="url(#mask0_283_1799)">
<path d="M64.6191 131.282C31.8692 127.621 8.28792 98.1042 11.9488 65.3543C15.6097 32.6045 45.1264 9.02316 77.8763 12.684C110.626 16.3449 134.207 45.8616 130.547 78.6115C126.886 111.361 97.369 134.943 64.6191 131.282Z" stroke="url(#paint0_radial_283_1799)" stroke-width="8.43738" stroke-miterlimit="10" stroke-dasharray="0.7 2.81"/>
</g>
</g>
<defs>
<radialGradient id="paint0_radial_283_1799" cx="0" cy="0" r="1" gradientUnits="userSpaceOnUse" gradientTransform="translate(71.2477 71.9829) rotate(96.3782) scale(59.6682)">
<stop offset="0.9999" stop-color="white" stop-opacity="0"/>
<stop offset="1" stop-color="white"/>
</radialGradient>
<clipPath id="clip0_283_1799">
<rect width="129.198" height="129.198" fill="white" transform="matrix(-0.99381 -0.111091 -0.111091 0.99381 142.751 14.3563)"/>
</clipPath>
</defs>
</svg>
