<svg width="99" height="44" viewBox="0 0 99 44" fill="none" xmlns="http://www.w3.org/2000/svg">
<path d="M6.82031 27H2.45312V26.0859H4.10156V17.7188H2.45312V16.8047H6.82031V17.7188H5.17969V26.0859H6.82031V27ZM16.6328 27H15.3047L11.1875 18.375V27H10.1172V16.8047H11.625L15.5547 25.0312V16.8047H16.6328V27ZM34.4688 19.7188C34.4688 20.7031 34.1615 21.4349 33.5469 21.9141C32.9323 22.3932 32.0703 22.6328 30.9609 22.6328H28.6562V27H27.5859V16.8047H30.9453C32.0651 16.8047 32.9323 17.0495 33.5469 17.5391C34.1615 18.0234 34.4688 18.75 34.4688 19.7188ZM33.3984 19.7188C33.3984 19.0156 33.1771 18.5078 32.7344 18.1953C32.2917 17.8776 31.7005 17.7188 30.9609 17.7188H28.6562V21.7188H30.9609C31.7005 21.7188 32.2917 21.5625 32.7344 21.25C33.1771 20.9323 33.3984 20.4219 33.3984 19.7188ZM43.3125 27H41.9531L38.9766 22.6328H37.3906V27H36.3203V16.8047H39.6797C40.7995 16.8047 41.6667 17.0495 42.2812 17.5391C42.8958 18.0234 43.2031 18.75 43.2031 19.7188C43.2031 20.1458 43.1276 20.5312 42.9766 20.875C42.8255 21.2135 42.6198 21.5026 42.3594 21.7422C42.099 21.9818 41.7865 22.1745 41.4219 22.3203C41.0625 22.4661 40.6693 22.5547 40.2422 22.5859L43.3125 27ZM42.0938 19.7188C42.0938 19.026 41.8776 18.5208 41.4453 18.2031C41.0182 17.8802 40.4297 17.7188 39.6797 17.7188H37.3906V21.7188H39.6797C40.4297 21.7188 41.0182 21.5625 41.4453 21.25C41.8776 20.9323 42.0938 20.4219 42.0938 19.7188ZM52.2266 21.9141C52.2266 22.5964 52.1562 23.2552 52.0156 23.8906C51.875 24.526 51.651 25.0859 51.3438 25.5703C51.0365 26.0547 50.6328 26.4453 50.1328 26.7422C49.638 27.0339 49.0339 27.1797 48.3203 27.1797C47.6068 27.1797 47 27.0339 46.5 26.7422C46.0052 26.4453 45.6016 26.0547 45.2891 25.5703C44.9818 25.0859 44.7604 24.526 44.625 23.8906C44.4844 23.2552 44.4141 22.5964 44.4141 21.9141C44.4141 21.2318 44.4844 20.5729 44.625 19.9375C44.7604 19.3021 44.9844 18.7396 45.2969 18.25C45.6146 17.7604 46.0208 17.3698 46.5156 17.0781C47.0156 16.7812 47.6172 16.6328 48.3203 16.6328C49.0234 16.6328 49.6224 16.7812 50.1172 17.0781C50.6172 17.3698 51.0208 17.7604 51.3281 18.25C51.6354 18.7396 51.862 19.3021 52.0078 19.9375C52.1536 20.5729 52.2266 21.2318 52.2266 21.9141ZM51.1484 21.9141C51.1484 21.2422 51.0833 20.638 50.9531 20.1016C50.8281 19.5599 50.6458 19.099 50.4062 18.7188C50.1667 18.3385 49.8698 18.0495 49.5156 17.8516C49.1667 17.6484 48.7682 17.5469 48.3203 17.5469C47.763 17.5469 47.3021 17.6771 46.9375 17.9375C46.5781 18.1979 46.2891 18.5391 46.0703 18.9609C45.8516 19.3828 45.6979 19.8516 45.6094 20.3672C45.526 20.8828 45.4844 21.3984 45.4844 21.9141C45.4844 22.4245 45.526 22.9401 45.6094 23.4609C45.6979 23.9766 45.8516 24.4427 46.0703 24.8594C46.2891 25.2708 46.5781 25.6094 46.9375 25.875C47.3021 26.1354 47.763 26.2656 48.3203 26.2656C48.8724 26.2656 49.3307 26.1354 49.6953 25.875C50.0599 25.6094 50.3516 25.2708 50.5703 24.8594C50.7891 24.4427 50.9401 23.9766 51.0234 23.4609C51.1068 22.9401 51.1484 22.4245 51.1484 21.9141ZM61.0859 21.9297C61.0859 22.6224 61.013 23.2839 60.8672 23.9141C60.7266 24.5443 60.4974 25.1016 60.1797 25.5859C59.8672 26.0703 59.4609 26.4583 58.9609 26.75C58.4661 27.0365 57.8672 27.1797 57.1641 27.1797C56.4505 27.1797 55.8464 27.0339 55.3516 26.7422C54.8568 26.4453 54.4505 26.0547 54.1328 25.5703C53.8203 25.0859 53.5938 24.526 53.4531 23.8906C53.3177 23.2552 53.25 22.5964 53.25 21.9141C53.25 21.2318 53.3177 20.5729 53.4531 19.9375C53.5938 19.3021 53.8203 18.7396 54.1328 18.25C54.4505 17.7604 54.8568 17.3698 55.3516 17.0781C55.8464 16.7812 56.4505 16.6328 57.1641 16.6328C57.7943 16.6328 58.3333 16.7448 58.7812 16.9688C59.2292 17.1927 59.5599 17.5339 59.7734 17.9922V16.8047H60.6875V20.1484H59.7734C59.7734 19.7786 59.7031 19.4349 59.5625 19.1172C59.4271 18.7943 59.2422 18.5182 59.0078 18.2891C58.7734 18.0599 58.4948 17.8802 58.1719 17.75C57.8542 17.6146 57.5182 17.5469 57.1641 17.5469C56.612 17.5469 56.1536 17.6771 55.7891 17.9375C55.4297 18.1979 55.1406 18.5391 54.9219 18.9609C54.7031 19.3828 54.5469 19.8516 54.4531 20.3672C54.3646 20.8828 54.3203 21.3984 54.3203 21.9141C54.3203 22.4245 54.3646 22.9401 54.4531 23.4609C54.5469 23.9766 54.7031 24.4427 54.9219 24.8594C55.1406 25.2708 55.4297 25.6094 55.7891 25.875C56.1536 26.1354 56.612 26.2656 57.1641 26.2656C57.987 26.2656 58.6354 25.9479 59.1094 25.3125C59.5833 24.6771 59.8646 23.7839 59.9531 22.6328H57.6953V21.7188H61.0859V21.9297ZM69.5156 27H68.1562L65.1797 22.6328H63.5938V27H62.5234V16.8047H65.8828C67.0026 16.8047 67.8698 17.0495 68.4844 17.5391C69.099 18.0234 69.4062 18.75 69.4062 19.7188C69.4062 20.1458 69.3307 20.5312 69.1797 20.875C69.0286 21.2135 68.8229 21.5026 68.5625 21.7422C68.3021 21.9818 67.9896 22.1745 67.625 22.3203C67.2656 22.4661 66.8724 22.5547 66.4453 22.5859L69.5156 27ZM68.2969 19.7188C68.2969 19.026 68.0807 18.5208 67.6484 18.2031C67.2214 17.8802 66.6328 17.7188 65.8828 17.7188H63.5938V21.7188H65.8828C66.6328 21.7188 67.2214 21.5625 67.6484 21.25C68.0807 20.9323 68.2969 20.4219 68.2969 19.7188ZM77.7734 27H71.2578V16.8047H77.7734V17.7188H72.3281V21.3672H76.3438V22.2812H72.3281V26.0859H77.7734V27ZM86.6328 24.3438C86.6328 24.7708 86.5443 25.1589 86.3672 25.5078C86.1901 25.8516 85.9531 26.1484 85.6562 26.3984C85.3594 26.6484 85.0182 26.8411 84.6328 26.9766C84.2474 27.112 83.8464 27.1797 83.4297 27.1797C82.8568 27.1797 82.3307 27.0729 81.8516 26.8594C81.3724 26.6458 80.9922 26.3307 80.7109 25.9141V27H79.8047V23.8984H80.7109C80.7109 24.2474 80.7917 24.5677 80.9531 24.8594C81.1146 25.1458 81.3203 25.3932 81.5703 25.6016C81.8203 25.8099 82.1068 25.974 82.4297 26.0938C82.7578 26.2083 83.0911 26.2656 83.4297 26.2656C83.7318 26.2656 84.0104 26.224 84.2656 26.1406C84.5208 26.0521 84.7448 25.9297 84.9375 25.7734C85.1302 25.612 85.2812 25.4167 85.3906 25.1875C85.5052 24.9583 85.5625 24.6979 85.5625 24.4062C85.5625 24.0781 85.4896 23.7969 85.3438 23.5625C85.2031 23.3281 85.0104 23.1276 84.7656 22.9609C84.526 22.7943 84.2552 22.6536 83.9531 22.5391C83.651 22.4193 83.3438 22.3021 83.0312 22.1875C82.6615 22.0573 82.2917 21.9219 81.9219 21.7812C81.5521 21.6354 81.2214 21.4531 80.9297 21.2344C80.638 21.0156 80.401 20.75 80.2188 20.4375C80.0365 20.1198 79.9453 19.7266 79.9453 19.2578C79.9453 18.8411 80.0339 18.4714 80.2109 18.1484C80.388 17.8203 80.6198 17.5443 80.9062 17.3203C81.1927 17.0964 81.526 16.9271 81.9062 16.8125C82.2865 16.6927 82.6771 16.6328 83.0781 16.6328C83.5729 16.6328 84.0286 16.7344 84.4453 16.9375C84.8672 17.1406 85.1953 17.4505 85.4297 17.8672V16.8047H86.375V19.7188H85.4297C85.4297 19.4115 85.3646 19.125 85.2344 18.8594C85.1094 18.5885 84.9375 18.3594 84.7188 18.1719C84.5 17.9792 84.25 17.8281 83.9688 17.7188C83.6875 17.6042 83.3906 17.5469 83.0781 17.5469C82.8021 17.5469 82.5391 17.5781 82.2891 17.6406C82.0391 17.7031 81.8203 17.8047 81.6328 17.9453C81.4453 18.0807 81.2943 18.2578 81.1797 18.4766C81.0703 18.6953 81.0156 18.9557 81.0156 19.2578C81.0156 19.5234 81.0807 19.75 81.2109 19.9375C81.3464 20.125 81.526 20.2917 81.75 20.4375C81.974 20.5781 82.2318 20.7083 82.5234 20.8281C82.8203 20.9427 83.1224 21.0599 83.4297 21.1797C83.8151 21.3151 84.1979 21.4661 84.5781 21.6328C84.9583 21.7995 85.2995 22 85.6016 22.2344C85.9036 22.4688 86.151 22.7578 86.3438 23.1016C86.5365 23.4401 86.6328 23.8542 86.6328 24.3438ZM95.3672 24.3438C95.3672 24.7708 95.2786 25.1589 95.1016 25.5078C94.9245 25.8516 94.6875 26.1484 94.3906 26.3984C94.0938 26.6484 93.7526 26.8411 93.3672 26.9766C92.9818 27.112 92.5807 27.1797 92.1641 27.1797C91.5911 27.1797 91.0651 27.0729 90.5859 26.8594C90.1068 26.6458 89.7266 26.3307 89.4453 25.9141V27H88.5391V23.8984H89.4453C89.4453 24.2474 89.526 24.5677 89.6875 24.8594C89.849 25.1458 90.0547 25.3932 90.3047 25.6016C90.5547 25.8099 90.8411 25.974 91.1641 26.0938C91.4922 26.2083 91.8255 26.2656 92.1641 26.2656C92.4661 26.2656 92.7448 26.224 93 26.1406C93.2552 26.0521 93.4792 25.9297 93.6719 25.7734C93.8646 25.612 94.0156 25.4167 94.125 25.1875C94.2396 24.9583 94.2969 24.6979 94.2969 24.4062C94.2969 24.0781 94.224 23.7969 94.0781 23.5625C93.9375 23.3281 93.7448 23.1276 93.5 22.9609C93.2604 22.7943 92.9896 22.6536 92.6875 22.5391C92.3854 22.4193 92.0781 22.3021 91.7656 22.1875C91.3958 22.0573 91.026 21.9219 90.6562 21.7812C90.2865 21.6354 89.9557 21.4531 89.6641 21.2344C89.3724 21.0156 89.1354 20.75 88.9531 20.4375C88.7708 20.1198 88.6797 19.7266 88.6797 19.2578C88.6797 18.8411 88.7682 18.4714 88.9453 18.1484C89.1224 17.8203 89.3542 17.5443 89.6406 17.3203C89.9271 17.0964 90.2604 16.9271 90.6406 16.8125C91.0208 16.6927 91.4115 16.6328 91.8125 16.6328C92.3073 16.6328 92.763 16.7344 93.1797 16.9375C93.6016 17.1406 93.9297 17.4505 94.1641 17.8672V16.8047H95.1094V19.7188H94.1641C94.1641 19.4115 94.099 19.125 93.9688 18.8594C93.8438 18.5885 93.6719 18.3594 93.4531 18.1719C93.2344 17.9792 92.9844 17.8281 92.7031 17.7188C92.4219 17.6042 92.125 17.5469 91.8125 17.5469C91.5365 17.5469 91.2734 17.5781 91.0234 17.6406C90.7734 17.7031 90.5547 17.8047 90.3672 17.9453C90.1797 18.0807 90.0286 18.2578 89.9141 18.4766C89.8047 18.6953 89.75 18.9557 89.75 19.2578C89.75 19.5234 89.8151 19.75 89.9453 19.9375C90.0807 20.125 90.2604 20.2917 90.4844 20.4375C90.7083 20.5781 90.9661 20.7083 91.2578 20.8281C91.5547 20.9427 91.8568 21.0599 92.1641 21.1797C92.5495 21.3151 92.9323 21.4661 93.3125 21.6328C93.6927 21.7995 94.0339 22 94.3359 22.2344C94.638 22.4688 94.8854 22.7578 95.0781 23.1016C95.2708 23.4401 95.3672 23.8542 95.3672 24.3438Z" fill="white"/>
</svg>
