<svg width="217" height="105" viewBox="0 0 217 105" fill="none" xmlns="http://www.w3.org/2000/svg">
<g opacity="0.1">
<path d="M7.57013 4.63256C8.13364 3.29662 9.03688 2.13139 10.1901 1.25259C11.3694 0.401226 12.7962 -0.0380679 14.2501 0.00258813C14.9565 -0.00377852 15.6603 0.0905003 16.3401 0.282587C16.926 0.45104 17.4685 0.744423 17.9301 1.14257C18.282 1.42828 18.5888 1.76541 18.8401 2.14257C19.108 2.56959 19.3261 3.02592 19.4901 3.50259C19.7754 3.02504 20.1106 2.57917 20.4901 2.17257C20.8414 1.79254 21.2376 1.45674 21.6701 1.17257C22.2249 0.793216 22.8356 0.503052 23.4801 0.312586C24.1979 0.102622 24.9423 -0.0018025 25.6901 0.00258813C26.6518 -0.00312848 27.6046 0.187422 28.4901 0.562586C29.3825 0.944775 30.166 1.54267 30.7701 2.30258C31.4673 3.24548 31.9734 4.31553 32.2601 5.45257C32.6509 6.97757 32.8326 8.54864 32.8001 10.1226V33.8326H25.0101V10.0926C25.0231 9.56544 24.9556 9.03941 24.8101 8.53259C24.7052 8.16589 24.5247 7.82524 24.2801 7.53259C24.0582 7.31489 23.7873 7.1537 23.4901 7.06259C23.199 6.97038 22.8955 6.92316 22.5901 6.92257C22.2957 6.91754 22.0022 6.95801 21.7201 7.04257C21.4676 7.12731 21.226 7.24142 21.0001 7.38256C20.8153 7.51909 20.6504 7.68065 20.5101 7.86257C20.3583 8.03986 20.2336 8.23869 20.1401 8.45257V33.8326H12.6301V10.0626C12.6441 9.53669 12.5835 9.01148 12.4501 8.50259C12.3583 8.13873 12.1914 7.79809 11.9601 7.50259C11.7426 7.28933 11.4792 7.12857 11.1901 7.03259C10.8924 6.93929 10.5822 6.89206 10.2701 6.89257C9.94567 6.887 9.62341 6.94702 9.32269 7.06903C9.02198 7.19103 8.74901 7.37249 8.52014 7.60256C8.35102 7.77537 8.20632 7.97054 8.09012 8.18258C7.96442 8.41851 7.8542 8.66234 7.76013 8.91256V33.8326H0.00012207V0.622583H7.33014L7.57013 4.63256Z" fill="white"/>
<path d="M56.1299 29.1226C55.0834 30.7056 53.6962 32.0347 52.0699 33.0125C50.5011 33.9477 48.7062 34.4353 46.8799 34.4225C45.272 34.4431 43.6734 34.1755 42.1599 33.6325C40.7368 33.1084 39.4704 32.2309 38.4799 31.0826C37.3809 29.803 36.5693 28.3026 36.0999 26.6826C35.4968 24.5871 35.2136 22.4126 35.2599 20.2325V0.622559H43.7799V20.2925C43.7629 21.436 43.8601 22.5783 44.0699 23.7025C44.2141 24.4971 44.5354 25.2491 45.0099 25.9026C45.433 26.4726 46.0186 26.9013 46.6899 27.1325C47.5137 27.3955 48.3753 27.5205 49.2399 27.5026C50.0583 27.5082 50.8743 27.4142 51.6699 27.2226C52.3492 27.0622 52.9977 26.792 53.5899 26.4225C54.0603 26.1219 54.4819 25.751 54.8399 25.3225C55.2166 24.885 55.5358 24.401 55.7899 23.8825V0.622559H64.3499V33.8326H56.6199L56.1299 29.1226Z" fill="white"/>
<path d="M68.0208 10.0626C68.5719 8.12127 69.4808 6.3 70.7008 4.69254C71.8325 3.23564 73.2785 2.05294 74.9308 1.23255C76.68 0.392689 78.6007 -0.0284058 80.5408 0.00256972C81.5768 -0.00677455 82.6103 0.103951 83.6208 0.332556C85.138 0.677363 86.5507 1.38026 87.7408 2.38254C88.2352 2.80424 88.6874 3.27315 89.0908 3.78257L89.4308 0.622565H97.1808V32.7126C97.2189 34.7708 96.8272 36.8143 96.0308 38.7126C95.3088 40.4157 94.2156 41.936 92.8308 43.1625C91.3673 44.4057 89.6661 45.338 87.8308 45.9026C85.7846 46.5361 83.6528 46.8498 81.5108 46.8326C80.4306 46.8215 79.3533 46.7178 78.2908 46.5226C77.1307 46.3112 75.9925 45.9932 74.8908 45.5725C73.7713 45.1428 72.7017 44.593 71.7008 43.9326C70.7183 43.2869 69.8498 42.4827 69.1308 41.5526L72.9608 36.3726C73.4914 36.9926 74.0883 37.5526 74.7408 38.0425C75.3562 38.517 76.0279 38.9134 76.7408 39.2226C77.4118 39.5329 78.1165 39.7644 78.8408 39.9125C79.5801 40.0712 80.3346 40.1483 81.0908 40.1426C82.2225 40.1624 83.3491 39.9865 84.4208 39.6226C85.3414 39.3139 86.1746 38.7893 86.8508 38.0926C87.4653 37.4432 87.9326 36.6689 88.2208 35.8225C88.5415 34.8552 88.7003 33.8416 88.6908 32.8225V30.9226C88.2909 31.363 87.8598 31.774 87.4008 32.1526C86.9481 32.5235 86.4665 32.8579 85.9608 33.1526C85.1739 33.5846 84.3379 33.9203 83.4708 34.1526C82.5106 34.3781 81.5271 34.4889 80.5408 34.4826C78.6119 34.5166 76.7037 34.0807 74.9808 33.2126C73.3355 32.3636 71.8953 31.1657 70.7608 29.7026C69.5449 28.111 68.6361 26.3069 68.0808 24.3825C67.4433 22.2105 67.1299 19.9562 67.1508 17.6925V17.0425C67.0975 14.6858 67.3906 12.3341 68.0208 10.0626ZM76.0208 21.4726C76.2603 22.5783 76.69 23.6339 77.2908 24.5926C77.8369 25.4612 78.5848 26.1851 79.4708 26.7026C80.4236 27.2326 81.5008 27.4984 82.5908 27.4726C83.2637 27.4756 83.9347 27.4018 84.5908 27.2526C85.1615 27.1208 85.7127 26.9158 86.2308 26.6426C86.7271 26.3767 87.1819 26.0399 87.5808 25.6426C87.9691 25.225 88.3049 24.7616 88.5808 24.2625V10.2625C88.2885 9.71203 87.918 9.20677 87.4808 8.76255C87.0515 8.34776 86.5543 8.00954 86.0108 7.76255C85.5172 7.52678 84.9967 7.35216 84.4608 7.24256C83.8633 7.11043 83.2527 7.04668 82.6408 7.05256C81.5458 7.02197 80.4634 7.29171 79.5108 7.83256C78.6239 8.35759 77.8763 9.08811 77.3308 9.96256C76.7118 10.9488 76.2686 12.0349 76.0208 13.1726C75.7248 14.4512 75.5805 15.7602 75.5908 17.0725V17.7226C75.6034 18.9858 75.7577 20.2437 76.0508 21.4726H76.0208Z" fill="white"/>
<path d="M110.04 33.1423C108.042 32.3595 106.217 31.1906 104.67 29.7023C103.18 28.2712 102.005 26.5442 101.22 24.6323C100.409 22.6421 99.998 20.5115 100.01 18.3623V17.1423C99.9805 14.7749 100.387 12.4222 101.21 10.2023C101.945 8.21215 103.067 6.3871 104.51 4.83233C105.943 3.31434 107.677 2.11204 109.6 1.30233C111.625 0.448958 113.803 0.0201044 116 0.0423197C118.189 0.00569916 120.362 0.410424 122.39 1.23232C124.205 1.97527 125.834 3.1088 127.16 4.55233C128.489 6.04902 129.49 7.8065 130.1 9.71233C130.795 11.8664 131.132 14.1194 131.1 16.3823V20.0023H108.66V20.0923C108.866 21.2077 109.237 22.2863 109.76 23.2923C110.228 24.1245 110.841 24.8662 111.57 25.4823C112.352 26.1663 113.254 26.6988 114.23 27.0523C115.284 27.4233 116.394 27.6094 117.51 27.6023C119.186 27.5867 120.843 27.2471 122.39 26.6023C123.898 26.0101 125.22 25.0263 126.22 23.7523L130.48 28.3423C129.113 30.1151 127.349 31.5431 125.33 32.5123C122.747 33.8146 119.882 34.457 116.99 34.3823C114.616 34.416 112.257 33.9951 110.04 33.1423ZM113.35 7.41231C112.558 7.74072 111.845 8.23517 111.26 8.86233C110.629 9.53001 110.113 10.2969 109.73 11.1323C109.301 12.0695 108.992 13.0574 108.81 14.0723H122.81V13.4023C122.817 12.5283 122.651 11.6616 122.32 10.8523C122.012 10.0792 121.557 9.373 120.98 8.77233C120.378 8.18422 119.664 7.7219 118.88 7.41231C117.966 7.05725 116.991 6.88403 116.01 6.90234C115.098 6.88662 114.192 7.06026 113.35 7.41231Z" fill="white"/>
<path d="M133.86 0.622692H141.58L142.11 5.2227C142.519 4.61411 142.988 4.04795 143.51 3.5327C144.012 3.02965 144.553 2.56813 145.13 2.15269C146.112 1.45561 147.199 0.918931 148.35 0.562694C149.55 0.185213 150.802 -0.0036995 152.06 0.00269668C153.621 -0.0135546 155.173 0.236695 156.65 0.742687C158.024 1.22281 159.264 2.02123 160.27 3.07267C161.337 4.27327 162.135 5.6883 162.61 7.2227C163.222 9.2137 163.509 11.2903 163.46 13.3727V33.8327H154.94V13.4927C154.971 12.3985 154.819 11.3067 154.49 10.2627C154.26 9.51948 153.837 8.85048 153.264 8.32359C152.691 7.7967 151.99 7.43068 151.23 7.26268C150.365 7.06136 149.478 6.96403 148.59 6.9727C147.831 6.96392 147.074 7.05811 146.34 7.2527C145.689 7.42012 145.073 7.70108 144.52 8.08268C144.086 8.36058 143.692 8.69709 143.35 9.08268C142.976 9.45442 142.641 9.86319 142.35 10.3027V33.8327H133.8L133.86 0.622692Z" fill="white"/>
<path d="M168 24.8325C168.569 24.2683 169.25 23.8306 170 23.548C170.75 23.2654 171.55 23.1442 172.35 23.1925C173.146 23.1492 173.942 23.2708 174.689 23.5495C175.436 23.8283 176.117 24.2583 176.69 24.8125C177.205 25.3407 177.61 25.9668 177.879 26.6537C178.149 27.3407 178.279 28.0747 178.26 28.8125C178.288 29.5549 178.159 30.2948 177.881 30.984C177.604 31.6732 177.184 32.2962 176.65 32.8125C175.447 33.8361 173.919 34.3982 172.34 34.3982C170.761 34.3982 169.233 33.8361 168.03 32.8125C167.5 32.2934 167.084 31.6697 166.809 30.981C166.533 30.2923 166.404 29.5538 166.43 28.8125C166.414 28.0781 166.545 27.3478 166.815 26.6645C167.084 25.9811 167.487 25.3584 168 24.8325Z" fill="white"/>
<path d="M9.07013 74.3324H0.00012207V70.6224H9.07013V68.1424C9.03168 66.2086 9.37138 64.2859 10.0701 62.4824C10.6637 60.9845 11.5984 59.6457 12.8001 58.5724C13.9837 57.5317 15.3792 56.7606 16.8901 56.3124C18.563 55.8071 20.3026 55.5576 22.0501 55.5724C22.7701 55.5724 23.4801 55.5724 24.1801 55.6824C24.8801 55.7924 25.5801 55.8424 26.2501 55.9424C26.9201 56.0424 27.3001 56.1124 27.8201 56.2124C28.3401 56.3124 28.8201 56.4424 29.3801 56.5824L28.8301 60.5024C27.8888 60.2226 26.9301 60.0054 25.9601 59.8524C24.8528 59.6713 23.7321 59.5844 22.6101 59.5924C21.379 59.5716 20.151 59.7196 18.9601 60.0324C17.9498 60.3024 17.0156 60.802 16.2301 61.4924C15.4112 62.2235 14.7889 63.1484 14.4201 64.1824C13.9626 65.465 13.7456 66.8211 13.7801 68.1824V70.6624H26.7801V74.3724H13.7801V103.822H9.03012L9.07013 74.3324Z" fill="white"/>
<path d="M48.9196 70.6224V99.7024H59.9796V103.832H32.7697V99.7524H44.2597V74.7524H32.7697V70.6524L48.9196 70.6224ZM43.5697 60.4724C43.7004 60.0953 43.916 59.7532 44.1997 59.4724C44.4638 59.2137 44.7812 59.0158 45.1297 58.8924C45.5504 58.7451 45.994 58.674 46.4397 58.6824C46.8919 58.6733 47.3422 58.7444 47.7697 58.8924C48.1182 59.0158 48.4356 59.2137 48.6997 59.4724C48.9834 59.7532 49.1989 60.0953 49.3297 60.4724C49.4633 60.879 49.5309 61.3044 49.5297 61.7324C49.5536 62.4959 49.2854 63.2399 48.7797 63.8124C48.4773 64.1196 48.1107 64.356 47.7061 64.5047C47.3015 64.6534 46.869 64.7107 46.4397 64.6724C46.0117 64.7127 45.5801 64.6563 45.1768 64.5075C44.7735 64.3586 44.4088 64.1211 44.1096 63.8124C43.6144 63.2343 43.3508 62.4934 43.3697 61.7324C43.3685 61.3044 43.436 60.879 43.5697 60.4724Z" fill="white"/>
<path d="M63.2999 70.6222H67.4999L67.77 76.2922C68.2775 75.4816 68.8529 74.7156 69.4899 74.0022C70.1076 73.3142 70.806 72.7032 71.5699 72.1822C72.5843 71.5052 73.6883 70.9734 74.8499 70.6022C76.0711 70.2217 77.3409 70.0196 78.6199 70.0022C80.2475 69.9802 81.8661 70.2476 83.4 70.7922C84.7688 71.284 85.9999 72.0967 86.9899 73.1622C88.0042 74.3009 88.7614 75.6447 89.21 77.1022C89.7603 78.8928 90.0235 80.7593 89.9899 82.6322V103.832H85.34V82.7222C85.3633 81.4075 85.1915 80.0965 84.83 78.8322C84.541 77.817 84.0207 76.8825 83.3099 76.1022C82.6093 75.3948 81.7533 74.8607 80.8099 74.5422C79.6909 74.1742 78.5177 73.9984 77.34 74.0222C76.2328 74.0135 75.1327 74.1997 74.09 74.5722C73.0955 74.9287 72.1562 75.4235 71.2999 76.0422C70.5603 76.6316 69.8894 77.3025 69.2999 78.0422C68.7176 78.8087 68.2401 79.6495 67.8799 80.5422V103.832H63.2999V70.6222Z" fill="white"/>
<path d="M116.5 101.833C116.375 101.081 116.291 100.323 116.25 99.5626C115.633 100.305 114.935 100.976 114.17 101.563C113.379 102.161 112.528 102.674 111.63 103.093C110.667 103.528 109.661 103.863 108.63 104.093C107.545 104.346 106.434 104.47 105.32 104.463C103.773 104.48 102.235 104.236 100.77 103.743C99.4728 103.308 98.2711 102.629 97.2296 101.743C96.2341 100.934 95.4371 99.9074 94.8996 98.7426C94.3441 97.5325 94.0641 96.2141 94.0796 94.8826C94.0348 93.1962 94.4422 91.5284 95.2596 90.0526C96.0475 88.6897 97.1563 87.5397 98.4896 86.7026C100.001 85.7944 101.654 85.1455 103.38 84.7826C105.377 84.3488 107.416 84.1375 109.46 84.1526H116.14V81.0026C116.157 79.9681 115.942 78.9428 115.51 78.0026C115.103 77.139 114.512 76.3745 113.78 75.7626C112.975 75.1472 112.063 74.6861 111.09 74.4026C109.972 74.081 108.813 73.9227 107.65 73.9326C106.567 73.921 105.489 74.0693 104.45 74.3726C103.537 74.6351 102.672 75.0438 101.89 75.5826C101.183 76.0836 100.592 76.7318 100.16 77.4826C99.7488 78.1994 99.5221 79.0068 99.4996 79.8326H94.8096C94.8374 78.53 95.1805 77.2536 95.8096 76.1126C96.4869 74.8904 97.4096 73.8214 98.5196 72.9726C99.7552 72.0428 101.138 71.3262 102.61 70.8526C104.298 70.3045 106.064 70.0343 107.84 70.0526C109.556 70.0412 111.266 70.2701 112.92 70.7326C114.408 71.1219 115.805 71.8016 117.03 72.7326C118.196 73.6523 119.134 74.8298 119.77 76.1726C120.468 77.6777 120.811 79.3237 120.77 80.9826V96.7026C120.796 97.8487 120.903 98.9916 121.09 100.123C121.271 101.217 121.532 102.296 121.87 103.353V103.833H116.97C116.745 103.184 116.587 102.514 116.5 101.833ZM109.28 99.8326C110.305 99.5488 111.292 99.1425 112.22 98.6226C113.056 98.1306 113.823 97.5286 114.5 96.8326C115.144 96.1573 115.677 95.3844 116.08 94.5426V87.5426H110.08C108.351 87.528 106.626 87.6888 104.93 88.0226C103.558 88.263 102.252 88.7913 101.1 89.5726C100.343 90.0831 99.7223 90.7694 99.2896 91.5726C98.8422 92.4118 98.6184 93.3519 98.6396 94.3026C98.6313 95.1562 98.8052 96.0017 99.1496 96.7826C99.474 97.5229 99.9712 98.1745 100.6 98.6826C101.28 99.2338 102.056 99.6542 102.89 99.9226C103.858 100.238 104.872 100.39 105.89 100.373C107.039 100.351 108.18 100.169 109.28 99.8326Z" fill="white"/>
<path d="M126.08 70.6222H130.31L130.58 76.2922C131.088 75.4816 131.663 74.7156 132.3 74.0022C132.918 73.3142 133.616 72.7032 134.38 72.1822C135.395 71.5052 136.499 70.9734 137.66 70.6022C138.882 70.2217 140.151 70.0196 141.43 70.0022C143.058 69.9802 144.676 70.2476 146.21 70.7922C147.579 71.284 148.81 72.0967 149.8 73.1622C150.815 74.3009 151.572 75.6447 152.02 77.1022C152.571 78.8928 152.834 80.7593 152.8 82.6322V103.832H148.15V82.7222C148.174 81.4075 148.002 80.0965 147.64 78.8322C147.351 77.817 146.831 76.8825 146.12 76.1022C145.42 75.3948 144.564 74.8607 143.62 74.5422C142.501 74.1742 141.328 73.9984 140.15 74.0222C139.043 74.0135 137.943 74.1997 136.9 74.5722C135.906 74.9287 134.967 75.4235 134.11 76.0422C133.368 76.629 132.697 77.3001 132.11 78.0422C131.528 78.8087 131.05 79.6495 130.69 80.5422V103.832H126.03L126.08 70.6222Z" fill="white"/>
<path d="M174.501 100.033C175.505 99.7104 176.44 99.2052 177.261 98.5426C178.072 97.9475 178.753 97.1919 179.261 96.3226C179.763 95.4359 180.044 94.4411 180.081 93.4226H184.501C184.447 94.9277 184.036 96.3984 183.301 97.7126C182.567 99.0455 181.578 100.221 180.391 101.173C179.138 102.197 177.717 102.996 176.191 103.533C174.612 104.111 172.942 104.402 171.261 104.393C169.028 104.446 166.813 103.98 164.791 103.033C163.008 102.168 161.44 100.918 160.201 99.3726C158.954 97.8004 158.011 96.0099 157.421 94.0926C156.796 92.0651 156.486 89.954 156.501 87.8326V86.5526C156.492 84.4375 156.806 82.3334 157.431 80.3126C158.023 78.3839 158.966 76.5805 160.211 74.9926C161.457 73.4618 163.024 72.2227 164.801 71.3626C166.812 70.4137 169.017 69.9447 171.241 69.9926C173.031 69.9767 174.81 70.285 176.491 70.9026C178.026 71.4638 179.446 72.3009 180.681 73.3726C181.837 74.4494 182.774 75.7398 183.441 77.1726C184.12 78.6549 184.484 80.2622 184.511 81.8926H180.071C180.029 80.8036 179.775 79.7333 179.321 78.7426C178.881 77.7969 178.263 76.9448 177.501 76.2326C176.703 75.4831 175.765 74.8985 174.741 74.5126C173.635 74.0959 172.462 73.889 171.281 73.9026C169.651 73.846 168.037 74.2332 166.611 75.0226C165.364 75.7352 164.296 76.7238 163.491 77.9126C162.682 79.1621 162.097 80.5427 161.761 81.9926C161.405 83.4899 161.227 85.0237 161.231 86.5626V87.8326C161.225 89.3881 161.403 90.9388 161.761 92.4526C162.099 93.8956 162.684 95.2692 163.491 96.5126C164.25 97.7094 165.281 98.7099 166.501 99.4326C167.957 100.207 169.592 100.586 171.241 100.533C172.347 100.535 173.446 100.366 174.501 100.033Z" fill="white"/>
<path d="M196.891 103.153C195.027 102.363 193.346 101.199 191.951 99.7326C190.561 98.2463 189.474 96.504 188.751 94.6025C187.971 92.5727 187.571 90.4169 187.571 88.2426V86.9526C187.558 84.5928 187.979 82.2508 188.811 80.0426C189.563 78.0669 190.683 76.2516 192.111 74.6925C193.444 73.2298 195.06 72.0527 196.861 71.2326C198.639 70.4152 200.574 69.9955 202.531 70.0026C204.612 69.963 206.677 70.3795 208.581 71.2226C210.277 71.9863 211.781 73.1208 212.981 74.5426C214.17 76.0249 215.063 77.7225 215.611 79.5426C216.22 81.5487 216.52 83.636 216.501 85.7326V88.1226H192.231V88.7326C192.324 90.2987 192.661 91.8406 193.231 93.3026C193.748 94.6324 194.5 95.8585 195.451 96.9226C196.428 98.0224 197.624 98.9077 198.961 99.5226C200.378 100.176 201.92 100.517 203.481 100.523C205.365 100.551 207.23 100.144 208.931 99.3326C210.529 98.5479 211.933 97.4172 213.041 96.0226L215.921 98.2526C214.613 100.073 212.902 101.565 210.921 102.613C208.553 103.847 205.91 104.456 203.241 104.383C201.062 104.413 198.9 103.994 196.891 103.153ZM198.891 74.6325C197.763 75.1243 196.743 75.8347 195.891 76.7226C194.965 77.6804 194.211 78.7898 193.661 80.0026C193.058 81.3477 192.65 82.7721 192.451 84.2326H211.881V83.9226C211.871 82.6854 211.654 81.4585 211.241 80.2926C210.845 79.091 210.231 77.9724 209.431 76.9926C208.633 76.0607 207.653 75.3018 206.551 74.7626C205.305 74.1609 203.934 73.866 202.551 73.9026C201.283 73.8886 200.027 74.1371 198.861 74.6325H198.891Z" fill="white"/>
</g>
</svg>
