<svg width="218" height="40" viewBox="0 0 218 40" fill="none" xmlns="http://www.w3.org/2000/svg">
<g clip-path="url(#clip0_156_2258)">
<path d="M49.9029 16.0819C50.1486 15.4993 50.5425 14.9912 51.0453 14.608C51.5596 14.2367 52.1818 14.0452 52.8158 14.0629C53.1238 14.0601 53.4307 14.1012 53.7271 14.185C53.9826 14.2584 54.2192 14.3864 54.4205 14.56C54.5739 14.6846 54.7077 14.8316 54.8173 14.9961C54.9341 15.1823 55.0292 15.3813 55.1007 15.5891C55.2251 15.3809 55.3713 15.1864 55.5368 15.0091C55.69 14.8434 55.8628 14.697 56.0513 14.5731C56.2933 14.4077 56.5596 14.2811 56.8406 14.1981C57.1536 14.1065 57.4782 14.061 57.8043 14.0629C58.2237 14.0604 58.6391 14.1435 59.0253 14.3071C59.4144 14.4737 59.7561 14.7345 60.0195 15.0658C60.3235 15.477 60.5442 15.9436 60.6692 16.4394C60.8397 17.1044 60.9189 17.7895 60.9047 18.4758V28.8149H57.5078V18.4628C57.5134 18.2329 57.484 18.0035 57.4206 17.7825C57.3748 17.6226 57.2961 17.4741 57.1895 17.3464C57.0927 17.2515 56.9746 17.1812 56.845 17.1415C56.718 17.1013 56.5857 17.0807 56.4525 17.0804C56.3241 17.0782 56.1962 17.0959 56.0731 17.1328C55.963 17.1697 55.8577 17.2195 55.7592 17.281C55.6786 17.3406 55.6067 17.411 55.5455 17.4903C55.4793 17.5676 55.4249 17.6543 55.3842 17.7476V28.8149H52.1093V18.4497C52.1154 18.2204 52.089 17.9913 52.0308 17.7694C51.9908 17.6108 51.918 17.4622 51.8172 17.3334C51.7223 17.2404 51.6075 17.1703 51.4814 17.1284C51.3516 17.0877 51.2163 17.0671 51.0802 17.0674C50.9387 17.0649 50.7982 17.0911 50.6671 17.1443C50.536 17.1975 50.4169 17.2766 50.3171 17.377C50.2434 17.4523 50.1803 17.5374 50.1296 17.6299C50.0748 17.7328 50.0267 17.8391 49.9857 17.9482V28.8149H46.6019V14.3333H49.7982L49.9029 16.0819Z" fill="white"/>
<path d="M71.078 26.761C70.6217 27.4513 70.0168 28.0309 69.3076 28.4573C68.6235 28.8651 67.8408 29.0777 67.0444 29.0722C66.3433 29.0811 65.6462 28.9644 64.9862 28.7277C64.3657 28.4991 63.8135 28.1165 63.3815 27.6157C62.9023 27.0577 62.5484 26.4035 62.3437 25.697C62.0807 24.7833 61.9572 23.8351 61.9774 22.8844V14.3333H65.6927V22.9106C65.6853 23.4092 65.7276 23.9073 65.8191 24.3976C65.882 24.7441 66.0221 25.0719 66.229 25.3569C66.4135 25.6055 66.6689 25.7924 66.9616 25.8933C67.3208 26.0079 67.6966 26.0624 68.0736 26.0546C68.4304 26.0571 68.7862 26.0161 69.1332 25.9325C69.4294 25.8626 69.7122 25.7447 69.9704 25.5837C70.1756 25.4526 70.3594 25.2908 70.5155 25.104C70.6798 24.9132 70.819 24.7021 70.9298 24.4761V14.3333H74.6625V28.8149H71.2917L71.078 26.761Z" fill="white"/>
<path d="M76.2628 18.4497C76.5031 17.6032 76.8995 16.809 77.4315 16.1081C77.925 15.4728 78.5555 14.957 79.276 14.5993C80.0388 14.2331 80.8763 14.0494 81.7223 14.063C82.1741 14.0589 82.6248 14.1072 83.0654 14.2068C83.727 14.3572 84.343 14.6637 84.862 15.1008C85.0776 15.2847 85.2747 15.4891 85.4507 15.7113L85.5989 14.3333H88.9784V28.3265C88.995 29.2241 88.8242 30.1152 88.4769 30.9429C88.1621 31.6856 87.6854 32.3486 87.0815 32.8834C86.4434 33.4255 85.7015 33.832 84.9012 34.0782C84.0089 34.3545 83.0793 34.4913 82.1453 34.4837C81.6743 34.4789 81.2045 34.4337 80.7412 34.3486C80.2353 34.2564 79.739 34.1177 79.2586 33.9343C78.7704 33.7469 78.304 33.5071 77.8675 33.2192C77.4391 32.9376 77.0604 32.5869 76.7469 32.1813L78.417 29.9225C78.6483 30.1929 78.9086 30.4371 79.1932 30.6508C79.4615 30.8577 79.7544 31.0305 80.0653 31.1653C80.3579 31.3006 80.6652 31.4016 80.981 31.4662C81.3034 31.5354 81.6324 31.569 81.9622 31.5665C82.4556 31.5751 82.9469 31.4984 83.4142 31.3397C83.8157 31.2051 84.179 30.9764 84.4739 30.6726C84.7418 30.3894 84.9456 30.0517 85.0713 29.6827C85.2111 29.2609 85.2804 28.8189 85.2762 28.3745V27.546C85.1018 27.738 84.9138 27.9173 84.7137 28.0824C84.5163 28.2441 84.3063 28.3899 84.0858 28.5184C83.7427 28.7068 83.3781 28.8532 83 28.9545C82.5813 29.0528 82.1524 29.1011 81.7223 29.0984C80.8812 29.1132 80.0491 28.9231 79.2978 28.5446C78.5803 28.1744 77.9523 27.652 77.4576 27.014C76.9274 26.32 76.5311 25.5333 76.289 24.6941C76.011 23.747 75.8743 22.764 75.8835 21.7769V21.4934C75.8602 20.4658 75.988 19.4403 76.2628 18.4497ZM79.7513 23.4252C79.8558 23.9074 80.0431 24.3677 80.3051 24.7857C80.5433 25.1645 80.8694 25.4801 81.2557 25.7058C81.6712 25.9369 82.1409 26.0529 82.6162 26.0416C82.9097 26.0429 83.2023 26.0107 83.4884 25.9456C83.7372 25.8882 83.9776 25.7988 84.2035 25.6796C84.4199 25.5637 84.6183 25.4168 84.7922 25.2436C84.9615 25.0615 85.108 24.8594 85.2283 24.6418V18.5369C85.1008 18.2969 84.9393 18.0766 84.7486 17.8828C84.5614 17.702 84.3446 17.5545 84.1076 17.4468C83.8924 17.344 83.6654 17.2678 83.4317 17.22C83.1711 17.1624 82.9049 17.1346 82.6381 17.1372C82.1606 17.1238 81.6886 17.2415 81.2732 17.4773C80.8865 17.7063 80.5604 18.0248 80.3226 18.4061C80.0527 18.8362 79.8594 19.3098 79.7513 19.8059C79.6223 20.3634 79.5593 20.9342 79.5638 21.5065V21.79C79.5693 22.3408 79.6366 22.8893 79.7644 23.4252H79.7513Z" fill="white"/>
<path d="M94.5862 28.514C93.7147 28.1726 92.919 27.6629 92.2445 27.014C91.5945 26.3899 91.0821 25.6368 90.7401 24.8031C90.3863 23.9352 90.207 23.0062 90.2125 22.069V21.537C90.1994 20.5047 90.3768 19.4788 90.7357 18.5107C91.0562 17.6429 91.5453 16.8471 92.1747 16.1691C92.7994 15.5071 93.5554 14.9829 94.3943 14.6298C95.2772 14.2577 96.227 14.0707 97.1851 14.0803C98.1393 14.0644 99.087 14.2409 99.9715 14.5993C100.763 14.9232 101.473 15.4175 102.052 16.047C102.631 16.6996 103.067 17.466 103.334 18.2971C103.636 19.2364 103.784 20.2188 103.77 21.2056V22.7842H93.9844V22.8234C94.074 23.3098 94.2357 23.7801 94.4641 24.2188C94.6681 24.5817 94.9354 24.9051 95.2533 25.1738C95.5941 25.472 95.9875 25.7042 96.4133 25.8584C96.8726 26.0202 97.3565 26.1013 97.8436 26.0982C98.5744 26.0914 99.297 25.9433 99.9715 25.6622C100.629 25.4039 101.205 24.9749 101.642 24.4194L103.499 26.4209C102.903 27.1939 102.134 27.8167 101.254 28.2393C100.127 28.8072 98.8778 29.0873 97.6168 29.0547C96.5814 29.0694 95.5527 28.8859 94.5862 28.514ZM96.0295 17.2941C95.684 17.4373 95.3733 17.6529 95.1182 17.9264C94.843 18.2176 94.6176 18.552 94.451 18.9163C94.2636 19.3249 94.1288 19.7557 94.0498 20.1983H100.155V19.9061C100.158 19.525 100.085 19.1471 99.941 18.7942C99.8064 18.4571 99.608 18.1491 99.3567 17.8872C99.0938 17.6307 98.7825 17.4291 98.441 17.2941C98.0422 17.1393 97.6171 17.0638 97.1895 17.0717C96.7916 17.0649 96.3966 17.1406 96.0295 17.2941Z" fill="white"/>
<path d="M104.973 14.3334H108.34L108.571 16.3393C108.749 16.0739 108.954 15.8271 109.181 15.6024C109.4 15.383 109.636 15.1818 109.888 15.0006C110.316 14.6966 110.79 14.4626 111.292 14.3073C111.815 14.1427 112.361 14.0603 112.909 14.0631C113.59 14.056 114.267 14.1651 114.911 14.3858C115.51 14.5951 116.051 14.9433 116.49 15.4018C116.955 15.9253 117.303 16.5423 117.51 17.2114C117.777 18.0796 117.902 18.9852 117.881 19.8932V28.8151H114.165V19.9455C114.179 19.4684 114.113 18.9923 113.969 18.5371C113.869 18.213 113.684 17.9213 113.435 17.6915C113.185 17.4617 112.879 17.3021 112.548 17.2289C112.17 17.1411 111.784 17.0986 111.396 17.1024C111.065 17.0986 110.735 17.1397 110.415 17.2245C110.131 17.2975 109.863 17.42 109.622 17.5864C109.432 17.7076 109.261 17.8544 109.111 18.0225C108.948 18.1846 108.802 18.3629 108.675 18.5545V28.8151H104.947L104.973 14.3334Z" fill="white"/>
<path d="M119.86 24.8906C120.108 24.6445 120.406 24.4537 120.732 24.3304C121.059 24.2072 121.408 24.1544 121.757 24.1754C122.104 24.1565 122.452 24.2095 122.777 24.3311C123.103 24.4527 123.4 24.6402 123.65 24.8818C123.874 25.1122 124.051 25.3852 124.168 25.6847C124.286 25.9843 124.342 26.3044 124.334 26.6261C124.346 26.9498 124.29 27.2725 124.169 27.573C124.048 27.8735 123.865 28.1452 123.632 28.3703C123.108 28.8167 122.442 29.0618 121.753 29.0618C121.064 29.0618 120.398 28.8167 119.873 28.3703C119.642 28.144 119.461 27.872 119.341 27.5717C119.221 27.2714 119.164 26.9493 119.176 26.6261C119.169 26.3058 119.226 25.9874 119.343 25.6894C119.461 25.3914 119.637 25.1199 119.86 24.8906Z" fill="white"/>
<path d="M126.872 15.9511H122.917V14.3333H126.872V13.2518C126.855 12.4086 127.004 11.5702 127.308 10.7837C127.567 10.1306 127.975 9.54675 128.499 9.07872C129.015 8.62492 129.623 8.28868 130.282 8.09323C131.012 7.8729 131.77 7.7641 132.532 7.77053C132.846 7.77053 133.156 7.77054 133.461 7.81851C133.766 7.86647 134.072 7.88827 134.364 7.93187C134.656 7.97548 134.822 8.00601 135.048 8.04962C135.275 8.09323 135.484 8.14991 135.729 8.21096L135.489 9.92033C135.078 9.79831 134.66 9.70361 134.237 9.63688C133.754 9.55793 133.266 9.52001 132.777 9.52351C132.24 9.51443 131.704 9.57898 131.185 9.71538C130.744 9.8331 130.337 10.051 129.994 10.352C129.637 10.6708 129.366 11.0742 129.205 11.525C129.006 12.0843 128.911 12.6757 128.926 13.2693V14.3507H134.595V15.9685H128.926V28.8105H126.855L126.872 15.9511Z" fill="white"/>
<path d="M144.249 14.3334V27.0141H149.072V28.815H137.207V27.0359H142.217V16.1343H137.207V14.3465L144.249 14.3334ZM141.916 9.90736C141.973 9.74291 142.067 9.59373 142.191 9.4713C142.306 9.35848 142.445 9.27216 142.597 9.21837C142.78 9.15414 142.974 9.12313 143.168 9.1268C143.365 9.12284 143.561 9.15384 143.748 9.21837C143.9 9.27216 144.038 9.35848 144.153 9.4713C144.277 9.59373 144.371 9.74291 144.428 9.90736C144.486 10.0847 144.516 10.2702 144.515 10.4568C144.526 10.7897 144.409 11.1141 144.188 11.3638C144.056 11.4978 143.897 11.6008 143.72 11.6657C143.544 11.7305 143.355 11.7555 143.168 11.7388C142.981 11.7564 142.793 11.7318 142.617 11.6669C142.441 11.602 142.282 11.4984 142.152 11.3638C141.936 11.1117 141.821 10.7886 141.829 10.4568C141.829 10.2702 141.858 10.0847 141.916 9.90736Z" fill="white"/>
<path d="M150.52 14.3334H152.351L152.469 16.8059C152.69 16.4524 152.941 16.1184 153.219 15.8073C153.488 15.5073 153.793 15.2408 154.126 15.0137C154.568 14.7185 155.05 14.4865 155.556 14.3247C156.089 14.1587 156.643 14.0706 157.2 14.0631C157.91 14.0534 158.616 14.1701 159.285 14.4075C159.882 14.622 160.418 14.9763 160.85 15.441C161.293 15.9375 161.623 16.5235 161.818 17.1591C162.058 17.9399 162.173 18.7538 162.158 19.5705V28.815H160.131V19.6098C160.141 19.0364 160.066 18.4648 159.908 17.9135C159.782 17.4708 159.555 17.0633 159.246 16.723C158.94 16.4146 158.567 16.1816 158.155 16.0428C157.667 15.8823 157.156 15.8056 156.642 15.816C156.159 15.8122 155.68 15.8934 155.225 16.0558C154.791 16.2113 154.382 16.4271 154.008 16.6969C153.686 16.9539 153.393 17.2464 153.136 17.569C152.882 17.9032 152.674 18.2698 152.517 18.6591V28.815H150.52V14.3334Z" fill="white"/>
<path d="M173.718 27.9429C173.664 27.6152 173.628 27.2848 173.609 26.9531C173.341 27.2767 173.036 27.5692 172.702 27.8252C172.358 28.0862 171.987 28.3098 171.595 28.4924C171.175 28.6823 170.736 28.8284 170.287 28.9284C169.814 29.039 169.329 29.0931 168.843 29.0898C168.169 29.0972 167.498 28.991 166.859 28.7758C166.294 28.5863 165.77 28.2903 165.315 27.9037C164.881 27.5509 164.534 27.1034 164.299 26.5955C164.057 26.0678 163.935 25.4929 163.942 24.9123C163.922 24.1769 164.1 23.4496 164.456 22.8061C164.8 22.2118 165.284 21.7103 165.865 21.3453C166.524 20.9492 167.245 20.6663 167.997 20.5081C168.868 20.3189 169.757 20.2267 170.649 20.2333H173.561V18.8597C173.569 18.4086 173.475 17.9615 173.287 17.5516C173.109 17.1749 172.852 16.8416 172.532 16.5748C172.181 16.3064 171.784 16.1053 171.359 15.9817C170.872 15.8415 170.367 15.7724 169.859 15.7768C169.387 15.7717 168.917 15.8364 168.464 15.9686C168.066 16.0831 167.689 16.2613 167.348 16.4963C167.039 16.7147 166.782 16.9974 166.593 17.3248C166.414 17.6374 166.315 17.9894 166.305 18.3495H164.26C164.272 17.7815 164.422 17.2249 164.696 16.7274C164.992 16.1944 165.394 15.7283 165.878 15.3582C166.417 14.9527 167.02 14.6402 167.661 14.4337C168.398 14.1947 169.168 14.0769 169.942 14.0849C170.691 14.0799 171.436 14.1797 172.157 14.3814C172.806 14.5511 173.415 14.8475 173.95 15.2535C174.458 15.6546 174.867 16.168 175.144 16.7536C175.449 17.4099 175.598 18.1276 175.58 18.851V25.7059C175.592 26.2057 175.638 26.704 175.72 27.1973C175.799 27.6744 175.913 28.1451 176.06 28.6057V28.815H173.923C173.825 28.5321 173.757 28.2399 173.718 27.9429ZM170.57 27.0708C171.017 26.947 171.447 26.7699 171.852 26.5432C172.217 26.3286 172.551 26.0661 172.846 25.7626C173.127 25.4681 173.36 25.1311 173.535 24.764V21.7116H170.919C170.165 21.7052 169.413 21.7753 168.673 21.9209C168.075 22.0257 167.506 22.2561 167.003 22.5968C166.673 22.8194 166.402 23.1186 166.214 23.4689C166.019 23.8348 165.921 24.2448 165.93 24.6594C165.927 25.0316 166.003 25.4002 166.153 25.7408C166.294 26.0636 166.511 26.3477 166.785 26.5693C167.082 26.8097 167.42 26.993 167.784 27.11C168.206 27.2474 168.648 27.3137 169.092 27.3063C169.593 27.2966 170.091 27.2174 170.57 27.0708Z" fill="white"/>
<path d="M177.896 14.3334H179.74L179.858 16.8059C180.079 16.4524 180.33 16.1184 180.608 15.8073C180.878 15.5073 181.182 15.2408 181.515 15.0137C181.958 14.7185 182.439 14.4865 182.945 14.3247C183.478 14.1587 184.032 14.0706 184.589 14.0631C185.299 14.0534 186.005 14.1701 186.674 14.4075C187.271 14.622 187.808 14.9763 188.239 15.441C188.682 15.9375 189.012 16.5235 189.207 17.1591C189.447 17.9399 189.562 18.7538 189.547 19.5705V28.815H187.52V19.6098C187.53 19.0364 187.455 18.4648 187.297 17.9135C187.171 17.4708 186.945 17.0633 186.635 16.723C186.329 16.4146 185.956 16.1816 185.544 16.0428C185.056 15.8823 184.545 15.8056 184.031 15.816C183.548 15.8122 183.069 15.8934 182.614 16.0558C182.18 16.2113 181.771 16.4271 181.397 16.6969C181.074 16.9527 180.781 17.2454 180.525 17.569C180.271 17.9032 180.063 18.2698 179.906 18.6591V28.815H177.874L177.896 14.3334Z" fill="white"/>
<path d="M199.01 27.1579C199.448 27.0174 199.856 26.7971 200.214 26.5082C200.568 26.2487 200.864 25.9192 201.086 25.5401C201.305 25.1534 201.427 24.7197 201.443 24.2755H203.371C203.347 24.9318 203.168 25.5731 202.847 26.1462C202.527 26.7274 202.096 27.2401 201.578 27.655C201.032 28.1019 200.413 28.4501 199.747 28.6841C199.058 28.9364 198.33 29.0634 197.597 29.0591C196.623 29.0823 195.658 28.8793 194.776 28.4661C193.998 28.0892 193.315 27.544 192.774 26.8701C192.231 26.1845 191.82 25.4038 191.562 24.5677C191.29 23.6836 191.154 22.763 191.161 21.8379V21.2798C191.157 20.3574 191.294 19.44 191.566 18.5587C191.825 17.7177 192.236 16.9313 192.779 16.2389C193.322 15.5714 194.005 15.0311 194.78 14.656C195.657 14.2422 196.619 14.0377 197.588 14.0586C198.369 14.0517 199.145 14.1861 199.878 14.4554C200.547 14.7001 201.166 15.0652 201.705 15.5325C202.209 16.002 202.618 16.5647 202.908 17.1895C203.205 17.8359 203.364 18.5368 203.375 19.2477H201.439C201.421 18.7729 201.31 18.3062 201.112 17.8741C200.92 17.4618 200.65 17.0902 200.318 16.7796C199.97 16.4528 199.561 16.1979 199.115 16.0296C198.633 15.8479 198.121 15.7577 197.606 15.7636C196.895 15.7389 196.191 15.9077 195.569 16.252C195.026 16.5627 194.56 16.9938 194.209 17.5122C193.856 18.0571 193.601 18.6591 193.455 19.2913C193.3 19.9442 193.222 20.6131 193.223 21.2841V21.8379C193.221 22.5162 193.299 23.1924 193.455 23.8525C193.602 24.4818 193.857 25.0808 194.209 25.623C194.54 26.1448 194.99 26.5811 195.521 26.8963C196.157 27.234 196.869 27.3994 197.588 27.3759C198.071 27.377 198.55 27.3035 199.01 27.1579Z" fill="white"/>
<path d="M208.773 28.5186C207.961 28.1742 207.228 27.6666 206.619 27.0273C206.013 26.3792 205.539 25.6194 205.224 24.7903C204.884 23.9051 204.71 22.9651 204.709 22.0169V21.4544C204.704 20.4254 204.887 19.4041 205.25 18.4412C205.578 17.5797 206.066 16.7881 206.689 16.1083C207.27 15.4704 207.975 14.9571 208.76 14.5995C209.536 14.2431 210.379 14.0601 211.233 14.0631C212.141 14.0459 213.041 14.2275 213.871 14.5951C214.611 14.9282 215.266 15.4229 215.79 16.0428C216.308 16.6892 216.698 17.4295 216.937 18.2232C217.202 19.098 217.333 20.0082 217.325 20.9224V21.9646H206.741V22.2306C206.782 22.9135 206.929 23.5859 207.177 24.2234C207.403 24.8033 207.731 25.3379 208.146 25.8019C208.572 26.2815 209.093 26.6676 209.676 26.9357C210.294 27.2206 210.966 27.3693 211.647 27.3718C212.469 27.3843 213.282 27.2067 214.024 26.8528C214.721 26.5107 215.333 26.0176 215.816 25.4095L217.072 26.3819C216.501 27.1755 215.755 27.8262 214.891 28.2831C213.859 28.8213 212.706 29.087 211.542 29.0549C210.592 29.0681 209.65 28.8856 208.773 28.5186ZM209.646 16.0821C209.154 16.2965 208.709 16.6063 208.337 16.9935C207.934 17.4111 207.605 17.8949 207.365 18.4238C207.102 19.0103 206.924 19.6314 206.837 20.2683H215.31V20.1331C215.306 19.5936 215.211 19.0586 215.031 18.5502C214.858 18.0263 214.591 17.5385 214.242 17.1112C213.894 16.7049 213.466 16.3739 212.986 16.1388C212.443 15.8764 211.845 15.7478 211.242 15.7638C210.689 15.7577 210.141 15.8661 209.632 16.0821H209.646Z" fill="white"/>
<path d="M20.0018 39.9997C16.0453 40.0006 12.1775 38.8281 8.8875 36.6306C5.59749 34.433 3.03309 31.3092 1.51863 27.6541C0.00417024 23.999 -0.392308 19.9768 0.379341 16.0964C1.15099 12.2159 3.0561 8.65149 5.85372 5.85387C8.65134 3.05625 12.2158 1.15114 16.0962 0.379494C19.9767 -0.392156 23.9988 0.00432283 27.6539 1.51878C31.309 3.03324 34.4329 5.59764 36.6304 8.88765C38.828 12.1777 40.0004 16.0455 39.9996 20.0019C39.9927 25.3035 37.8835 30.386 34.1347 34.1349C30.3859 37.8837 25.3034 39.9928 20.0018 39.9997ZM20.0018 1.30792C16.3043 1.30706 12.6895 2.40271 9.61475 4.45631C6.53996 6.5099 4.14323 9.42921 2.72765 12.845C1.31208 16.2608 0.941251 20.0197 1.66207 23.6463C2.38289 27.2728 4.16298 30.6042 6.77721 33.219C9.39143 35.8339 12.7224 37.6147 16.3488 38.3364C19.9752 39.0581 23.7341 38.6881 27.1503 37.2733C30.5664 35.8586 33.4863 33.4625 35.5406 30.3882C37.5949 27.3139 38.6914 23.6994 38.6914 20.0019C38.6856 15.0465 36.7148 10.2956 33.2112 6.79117C29.7076 3.28674 24.9572 1.31485 20.0018 1.30792Z" fill="white"/>
<path d="M14.4466 13.2388H10.3956L15.9031 20.0021L10.3956 26.7611H14.4466L19.9541 20.0021L14.4466 13.2388Z" fill="white"/>
<path d="M21.7419 30.9213H14.3289L23.2202 20.0197L14.3289 9.11816H21.7419L30.6333 20.0197L21.7419 30.9213ZM16.1691 30.0492H21.3277L29.5082 20.0197L21.3277 9.99029H16.1691L24.3496 20.0197L16.1691 30.0492Z" fill="white"/>
</g>
<defs>
<clipPath id="clip0_156_2258">
<rect width="217.325" height="40" fill="white"/>
</clipPath>
</defs>
</svg>
