<svg width="121" height="265" viewBox="0 0 121 265" fill="none" xmlns="http://www.w3.org/2000/svg">
<path d="M-41.0952 164.657C1.90294 202.274 49.2499 218.492 64.6572 200.88C80.0645 183.269 57.6977 138.497 14.6995 100.881C-28.2986 63.2636 -75.6456 47.0459 -91.0529 64.6572C-106.46 82.2686 -84.0934 127.04 -41.0952 164.657Z" stroke="white" stroke-opacity="0.15" stroke-miterlimit="10"/>
<path d="M-14.4983 131.888C28.4998 169.505 75.8468 185.723 91.2541 168.111C106.661 150.5 84.2946 105.728 41.2964 68.1115C-1.7017 30.4945 -49.0487 14.2768 -64.456 31.8882C-79.8633 49.4995 -57.4965 94.2709 -14.4983 131.888Z" stroke="white" stroke-opacity="0.15" stroke-miterlimit="10"/>
<path d="M-68.9719 196.521C-25.9738 234.138 21.3732 250.356 36.7805 232.745C52.1878 215.133 29.821 170.362 -13.1772 132.745C-56.1753 95.1281 -103.522 78.9104 -118.93 96.5217C-134.337 114.133 -111.97 158.904 -68.9719 196.521Z" stroke="white" stroke-opacity="0.15" stroke-miterlimit="10"/>
</svg>
