<svg width="99" height="149" viewBox="0 0 99 149" fill="none" xmlns="http://www.w3.org/2000/svg">
<g opacity="0.3">
<path d="M51.0177 32.4953C52.1147 31.0644 53.6427 30.5531 56.0369 29.6527L67.3937 25.402C67.6963 25.2979 67.9925 25.1758 68.2805 25.0364C68.386 24.9767 68.8471 24.7218 68.7899 24.289C68.7328 23.8563 68.2216 23.732 68.1042 23.7017C67.7899 23.6418 67.4722 23.6008 67.1529 23.5789L55.0819 22.4226C52.5366 22.179 50.9283 22.0819 49.4968 20.9806C48.0635 19.8818 47.5525 18.3559 46.654 15.9593C45.2358 12.1753 43.819 8.39042 42.4035 4.60462C42.3001 4.30103 42.1779 4.00415 42.0376 3.71571C41.9801 3.60997 41.7233 3.15127 41.2927 3.20815C40.8621 3.26502 40.7333 3.77465 40.7051 3.89171C40.6446 4.20667 40.6036 4.52509 40.5826 4.84514C40.1955 8.86757 39.81 12.8905 39.426 16.914C39.1827 19.4615 39.0853 21.0676 37.9843 22.5012C36.8873 23.9321 35.3593 24.4434 32.9651 25.3438L21.6083 29.5946C21.3057 29.6986 21.0096 29.8207 20.7215 29.9602C20.6161 30.0199 20.155 30.2748 20.2118 30.7054C20.2687 31.136 20.7805 31.2645 20.8978 31.2948C21.2122 31.3547 21.5298 31.3957 21.8491 31.4176L33.9201 32.574C36.4654 32.8176 38.0737 32.9146 39.5052 34.0159C40.9385 35.1148 41.4495 36.6406 42.3481 39.0372C43.7634 42.8216 45.1802 46.6065 46.5985 50.3919C46.702 50.6955 46.8242 50.9924 46.9644 51.2808C47.022 51.3866 47.2787 51.8453 47.7093 51.7884C48.1399 51.7315 48.2688 51.2219 48.2969 51.1048C48.3575 50.7899 48.3984 50.4714 48.4195 50.1514C48.8065 46.129 49.1921 42.106 49.5761 38.0825C49.8194 35.5351 49.9167 33.9289 51.0177 32.4953Z" stroke="white" stroke-width="1.63043" stroke-linecap="round" stroke-linejoin="round"/>
<path d="M15.4029 90.9103C16.1144 90.5305 16.8312 90.6049 17.9729 90.681L23.3846 91.0505C23.5271 91.0641 23.6702 91.0692 23.8134 91.0657C23.8673 91.0609 24.1023 91.0423 24.1591 90.8555C24.2158 90.6687 24.0306 90.5235 23.9884 90.4895C23.8715 90.407 23.7497 90.3315 23.6237 90.2635L18.9214 87.5597C17.9298 86.9897 17.2927 86.6526 16.9134 85.9393C16.5329 85.2267 16.607 84.5107 16.6844 83.3684C16.8068 81.5649 16.9299 79.7614 17.0537 77.9577C17.0677 77.8149 17.0728 77.6714 17.0691 77.5279C17.0652 77.4742 17.0455 77.2399 16.8596 77.1834C16.6737 77.1269 16.5269 77.3107 16.4938 77.3531C16.4109 77.4702 16.3353 77.5923 16.2675 77.7188C15.3659 79.2854 14.4647 80.8526 13.564 82.4202C12.9937 83.4127 12.657 84.0489 11.9434 84.4291C11.2319 84.8089 10.515 84.7345 9.37336 84.6584L3.96169 84.2888C3.81919 84.2752 3.67601 84.2702 3.53291 84.2737C3.47892 84.2785 3.24396 84.297 3.18748 84.4829C3.13099 84.6688 3.31564 84.8158 3.35783 84.8499C3.47478 84.9324 3.59657 85.0079 3.72254 85.0759L8.42489 87.7797C9.41647 88.3497 10.0535 88.6868 10.4328 89.4001C10.8133 90.1127 10.7392 90.8287 10.6618 91.971C10.5382 93.7741 10.4152 95.5777 10.2926 97.3817C10.2786 97.5245 10.2734 97.668 10.2772 97.8114C10.2811 97.8652 10.3008 98.0995 10.4867 98.156C10.6726 98.2124 10.8193 98.0287 10.8524 97.9862C10.9354 97.8692 11.0109 97.7471 11.0787 97.6206C11.9804 96.054 12.8816 94.4868 13.7822 92.9192C14.3526 91.9267 14.6893 91.2905 15.4029 90.9103Z" stroke="white" stroke-width="1.63043" stroke-linecap="round" stroke-linejoin="round"/>
<path d="M90.9535 139.607C91.1592 139.106 91.5618 138.838 92.1849 138.39L95.1423 136.268C95.2218 136.214 95.298 136.155 95.3706 136.092C95.3964 136.067 95.5101 135.957 95.4596 135.836C95.4091 135.715 95.2512 135.719 95.2149 135.719C95.1191 135.727 95.0238 135.74 94.9296 135.758L91.3414 136.37C90.5848 136.498 90.1112 136.596 89.6101 136.39C89.1087 136.184 88.841 135.782 88.3928 135.158C87.6852 134.172 86.978 133.187 86.2711 132.201C86.2173 132.121 86.1586 132.044 86.0954 131.972C86.0704 131.946 85.96 131.833 85.8397 131.883C85.7194 131.933 85.7221 132.091 85.7231 132.127C85.7302 132.223 85.7433 132.319 85.7623 132.413C85.9655 133.609 86.1692 134.805 86.3733 136.001C86.5025 136.758 86.6002 137.231 86.3936 137.733C86.1879 138.233 85.7853 138.501 85.1622 138.95L82.2048 141.072C82.1253 141.126 82.0491 141.184 81.9765 141.247C81.9507 141.273 81.837 141.383 81.8873 141.503C81.9375 141.623 82.0959 141.621 82.1322 141.62C82.228 141.613 82.3233 141.6 82.4175 141.581L86.0057 140.97C86.7623 140.841 87.2359 140.743 87.737 140.95C88.2384 141.156 88.5061 141.558 88.9543 142.182C89.6611 143.167 90.3683 144.153 91.076 145.139C91.1298 145.218 91.1885 145.295 91.2517 145.367C91.2767 145.394 91.3871 145.506 91.5074 145.456C91.6277 145.406 91.625 145.248 91.624 145.212C91.6169 145.116 91.6038 145.021 91.5848 144.926C91.3816 143.73 91.1779 142.534 90.9738 141.339C90.8446 140.581 90.7469 140.108 90.9535 139.607Z" stroke="white" stroke-linecap="round" stroke-linejoin="round"/>
</g>
</svg>
