<svg width="125" height="186" viewBox="0 0 125 186" fill="none" xmlns="http://www.w3.org/2000/svg">
<path d="M49.2342 119.38C55.0244 115.597 61.2048 115.689 71.0152 115.476L117.525 114.535C118.752 114.543 119.979 114.478 121.199 114.339C121.657 114.257 123.65 113.921 123.993 112.282C124.337 110.644 122.645 109.544 122.259 109.285C121.197 108.668 120.099 108.116 118.972 107.63L76.7542 88.0932C67.8519 83.9744 62.1545 81.5776 58.3743 75.7712C54.5843 69.9713 54.6752 63.799 54.4713 53.9822C54.1512 38.4833 53.837 22.9828 53.5288 7.48076C53.5406 6.25041 53.4759 5.02053 53.3351 3.7982C53.2612 3.34229 52.9154 1.35562 51.2846 1.01383C49.6538 0.672034 48.5393 2.35263 48.2886 2.74051C47.6689 3.80344 47.1158 4.90384 46.6325 6.03536C40.1158 20.1013 33.604 34.1712 27.097 48.2448C22.9766 57.1552 20.5814 62.8446 14.7734 66.6329C8.98323 70.4165 2.80283 70.3238 -7.00755 70.5375L-53.5172 71.4783C-54.7448 71.4701 -55.9717 71.5354 -57.1916 71.6738C-57.6492 71.7557 -59.6422 72.0918 -59.984 73.7226C-60.3258 75.3534 -58.6371 76.4696 -58.2509 76.7284C-57.1894 77.3449 -56.0919 77.8974 -54.9643 78.3828L-12.7466 97.92C-3.84432 102.039 1.85316 104.436 5.63333 110.242C9.42332 116.042 9.33236 122.214 9.53627 132.031C9.84561 147.528 10.1598 163.028 10.4788 178.532C10.467 179.763 10.5318 180.993 10.6725 182.215C10.7464 182.671 11.0922 184.658 12.723 184.999C14.3538 185.341 15.4683 183.661 15.719 183.273C16.3387 182.21 16.8918 181.109 17.3751 179.978C23.8918 165.912 30.4036 151.842 36.9106 137.768C41.0311 128.858 43.4262 123.169 49.2342 119.38Z" stroke="white" stroke-width="1.63043" stroke-linecap="round" stroke-linejoin="round"/>
</svg>
