<svg width="353" height="487" viewBox="0 0 353 487" fill="none" xmlns="http://www.w3.org/2000/svg">
<g opacity="0.1">
<path d="M310.979 265.717L310.979 265.717L310.976 265.712C309.541 263.875 309.22 262.501 309.417 261.44C309.62 260.354 310.397 259.428 311.554 258.601C312.71 257.774 314.16 257.105 315.568 256.501C315.793 256.405 316.02 256.309 316.246 256.213C317.371 255.737 318.473 255.271 319.184 254.802L319.184 254.802L319.195 254.794C321.322 253.341 323.992 252.975 326.906 252.575C326.968 252.566 327.029 252.558 327.091 252.549C329.994 252.15 333.155 251.692 335.5 249.733L335.506 249.728L335.513 249.723C337.088 248.352 339.634 247.945 342.468 248.615C343.107 248.846 343.696 249.075 344.199 249.463C344.904 250.041 345.326 250.879 345.451 251.761C345.577 252.647 345.381 253.42 345.067 253.835C344.676 254.258 344.134 254.559 343.438 254.899C343.351 254.941 343.262 254.983 343.171 255.027C342.552 255.324 341.825 255.674 341.208 256.159L341.202 256.163C340.134 257.017 339.503 258.25 339.055 259.523C338.702 260.526 338.44 261.633 338.19 262.688C338.123 262.971 338.057 263.251 337.99 263.524C337.665 264.85 337.323 266.03 336.802 266.941C336.287 267.841 335.653 268.38 334.809 268.578L334.798 268.581L334.787 268.584C333.611 268.887 332.084 268.504 330.115 267.842C329.86 267.756 329.597 267.665 329.328 267.573C328.628 267.332 327.894 267.08 327.189 266.871C326.201 266.58 325.159 266.339 324.145 266.305L324.143 266.305C322.655 266.258 321.423 266.646 320.352 267.057C320.056 267.171 319.777 267.283 319.508 267.392C318.754 267.697 318.075 267.971 317.31 268.147L317.286 268.153L317.263 268.159C315.51 268.648 312.817 268.097 310.979 265.717Z" stroke="white" stroke-width="2" stroke-miterlimit="10"/>
<path d="M344.996 264.328L344.995 264.328L344.994 264.338C344.876 265.08 344.782 265.851 344.685 266.637C344.523 267.955 344.356 269.316 344.067 270.657C343.611 272.776 342.896 274.545 341.642 275.581C340.513 276.497 339.054 276.733 337.221 276.617C335.729 276.508 334.096 276.049 332.274 275.412C331.444 275.122 330.596 274.802 329.714 274.47C329.631 274.439 329.547 274.407 329.463 274.375C328.5 274.013 327.501 273.639 326.481 273.291C324.662 272.637 322.84 272.129 321.082 272.074C319.07 271.93 317.324 272.303 315.689 272.812C314.946 273.043 314.207 273.308 313.478 273.57C313.405 273.597 313.333 273.623 313.26 273.649C312.453 273.939 311.649 274.223 310.807 274.473L310.807 274.473L310.798 274.475C306.416 275.817 301.168 273.718 297.766 269.162C296.607 267.609 295.715 266.091 295.083 264.606C294.191 262.349 293.548 259.837 293.556 257.597C293.565 255.347 294.228 253.488 295.791 252.357C296.033 252.183 296.426 252.054 297.024 251.984C297.619 251.913 298.314 251.91 299.089 251.921C299.216 251.923 299.345 251.925 299.477 251.927C300.117 251.938 300.801 251.95 301.43 251.92C302.183 251.884 302.985 251.786 303.646 251.492L303.652 251.489L303.659 251.486C304.872 250.924 306.002 250.365 307.08 249.832C309.042 248.861 310.832 247.976 312.638 247.311L312.647 247.308L312.656 247.304C315.166 246.323 317.367 245.002 319.466 243.742C319.708 243.598 319.948 243.453 320.187 243.311C322.534 241.91 324.795 240.637 327.395 239.888C328.466 239.582 329.843 239.683 331.519 239.85C331.614 239.859 331.71 239.869 331.807 239.879C333.289 240.028 334.997 240.2 336.472 239.91C337.091 239.842 337.551 239.686 338.037 239.381L338.05 239.373L338.062 239.365C340.943 237.413 344.957 237.274 349.124 238.634L349.139 238.639L349.155 238.644C350.241 238.97 351.322 239.485 352.428 240.404L352.606 240.552L352.657 240.571C354.1 241.937 355.011 243.801 355.374 245.618C355.748 247.484 355.508 249.109 354.902 249.972L354.893 249.985L354.884 249.998C354.359 250.82 353.562 251.357 352.593 251.877C352.371 251.996 352.132 252.117 351.883 252.244C351.106 252.638 350.238 253.079 349.515 253.637C348.962 254.052 348.479 254.459 348.053 254.983C346.973 256.263 346.352 257.829 345.929 259.435C345.597 260.698 345.376 262.038 345.165 263.318C345.108 263.66 345.052 263.997 344.996 264.328Z" stroke="white" stroke-width="2" stroke-miterlimit="10"/>
<path d="M346.744 283.833L346.738 283.836L346.733 283.84C344.768 285.155 342.293 285.14 339.553 284.65C337.407 284.257 335.165 283.457 332.775 282.489C331.94 282.15 331.076 281.787 330.194 281.415C328.609 280.748 326.966 280.056 325.328 279.443C322.891 278.491 320.567 277.965 318.414 277.734L318.4 277.732L318.386 277.731C315.752 277.505 313.439 277.948 311.24 278.598C310.144 278.922 309.058 279.304 307.976 279.686L307.92 279.706C306.85 280.083 305.779 280.46 304.661 280.801C297.28 283.019 289.661 279.312 284.766 272.675C283.078 270.238 281.553 267.843 280.653 265.489L280.653 265.489L280.649 265.477C279.326 262.154 277.992 258.128 277.644 254.464C277.295 250.777 277.964 247.672 280.341 245.91C280.67 245.681 281.29 245.544 282.312 245.556C283.312 245.568 284.498 245.715 285.782 245.89C285.917 245.908 286.053 245.927 286.189 245.945C287.321 246.1 288.51 246.263 289.582 246.325C290.756 246.394 291.99 246.359 292.917 245.94L292.918 245.94L292.927 245.936C294.544 245.185 296.09 244.394 297.582 243.632C298.368 243.23 299.138 242.836 299.896 242.46C302.116 241.357 304.275 240.379 306.576 239.677C310.595 238.474 313.608 235.981 316.433 233.586C316.53 233.503 316.628 233.421 316.725 233.338C319.493 230.989 322.107 228.772 325.435 227.577L325.44 227.575C325.957 227.386 326.675 227.359 327.631 227.495C328.582 227.63 329.657 227.911 330.823 228.248C331.16 228.345 331.508 228.448 331.86 228.553C332.691 228.799 333.549 229.053 334.363 229.261C335.523 229.558 336.718 229.796 337.805 229.799C338.558 229.811 339.365 229.717 340.057 229.33L340.087 229.312L340.116 229.293C344.344 226.465 350.151 226.584 355.844 228.559C357.509 229.157 359.13 229.944 360.823 231.429L361.387 231.924L361.388 231.923C363.392 233.964 364.704 236.659 365.288 239.263C365.914 242.052 365.66 244.529 364.766 245.862L364.76 245.872L364.754 245.881C363.939 247.183 362.733 247.991 361.324 248.766C361.042 248.921 360.746 249.077 360.444 249.237C359.279 249.852 358.003 250.526 356.922 251.447L356.914 251.454L356.906 251.462C356.297 252.01 355.61 252.712 355.088 253.497C352.697 257.021 352.163 261.809 351.699 265.964C351.648 266.421 351.598 266.869 351.546 267.308L351.545 267.315C351.443 268.262 351.37 269.277 351.294 270.33C351.149 272.348 350.994 274.506 350.601 276.596C350.006 279.765 348.905 282.435 346.744 283.833Z" stroke="white" stroke-width="2" stroke-miterlimit="10"/>
<path d="M298.994 287.994C288.313 291.724 277.557 285.58 271.001 276.612C268.598 273.397 266.623 270.042 265.292 266.698M298.994 287.994L266.311 266.52C264.593 262.197 262.571 256.675 261.861 251.601C261.145 246.483 261.805 242.104 265.053 239.738L265.054 239.737C265.521 239.395 266.421 239.239 267.865 239.326C269.268 239.411 270.938 239.706 272.713 240.039C272.897 240.074 273.081 240.108 273.266 240.143C274.838 240.44 276.467 240.747 277.919 240.903C279.503 241.073 281.125 241.097 282.288 240.569L282.293 240.566C284.538 239.527 286.647 238.415 288.682 237.341C289.662 236.824 290.626 236.316 291.579 235.83C294.537 234.319 297.455 232.985 300.696 232.082C305.866 230.677 309.496 227.22 312.859 223.835C313.089 223.604 313.317 223.373 313.544 223.143C316.715 219.94 319.722 216.901 323.704 215.295C324.308 215.062 325.191 215.066 326.417 215.34C327.633 215.612 329.027 216.111 330.532 216.702C331.051 216.906 331.589 217.124 332.134 217.344C333.124 217.743 334.136 218.152 335.092 218.504C336.584 219.052 338.101 219.527 339.462 219.681L339.511 219.687L339.559 219.688L339.595 219.69C340.026 219.706 340.55 219.725 341.036 219.682C341.534 219.637 342.104 219.518 342.563 219.184C348.044 215.518 355.489 215.853 362.856 218.501C364.989 219.267 367.264 220.357 369.41 222.39C369.476 222.467 369.541 222.526 369.588 222.566C369.632 222.603 369.676 222.636 369.709 222.66L369.727 222.678C372.616 225.547 374.515 229.414 375.375 233.102C376.241 236.817 376.009 240.153 374.891 241.999L374.887 242.006C373.814 243.824 372.18 244.909 370.315 245.93C369.967 246.121 369.607 246.311 369.24 246.504C367.682 247.325 366.002 248.212 364.615 249.478L364.597 249.494L364.581 249.511L364.554 249.539C363.781 250.334 362.939 251.2 362.318 252.236C360.584 254.847 359.719 257.96 359.204 261.112C358.853 263.256 358.658 265.474 358.473 267.583C358.387 268.562 358.303 269.518 358.207 270.432L358.207 270.432C358.078 271.654 357.992 272.988 357.902 274.386C357.732 277.012 357.549 279.863 357.041 282.619C356.265 286.83 354.778 290.435 351.744 292.238C349.071 293.8 345.44 293.543 341.819 292.673C339.033 291.988 336.197 290.849 333.253 289.571C332.552 289.267 331.843 288.954 331.128 288.638C328.88 287.646 326.57 286.626 324.25 285.764C321.13 284.493 318.319 283.786 315.608 283.507L315.605 283.507C310.129 282.956 305.524 284.609 300.676 286.35C299.947 286.612 299.212 286.875 298.468 287.134L298.467 287.134C293.423 288.896 288.403 288.326 283.845 286.265C279.253 284.188 275.084 280.572 271.896 276.211L271.896 276.211L271.889 276.201C269.532 273.048 267.605 269.771 266.311 266.52C266.311 266.52 266.311 266.52 266.311 266.52L265.292 266.698M298.994 287.994C299.756 287.729 300.501 287.463 301.234 287.2M298.994 287.994L301.234 287.2M265.292 266.698C261.852 258.041 257.058 244.268 264.285 239.003L265.292 266.698ZM301.234 287.2C306.104 285.456 310.449 283.9 315.632 284.421L301.234 287.2Z" stroke="white" stroke-width="2" stroke-miterlimit="10"/>
<path d="M356.787 300.528L356.784 300.53C353.228 302.499 348.54 301.952 344.052 300.7C340.635 299.721 337.213 298.244 333.673 296.633C333.047 296.348 332.416 296.058 331.78 295.767C328.859 294.426 325.853 293.046 322.781 291.88C319.035 290.385 315.739 289.5 312.476 289.174L312.474 289.173C305.651 288.503 299.887 290.595 293.546 292.896C293.045 293.078 292.54 293.261 292.031 293.444L292.03 293.445C285.61 295.765 279.261 295.027 273.526 292.39C267.754 289.736 262.556 285.132 258.603 279.691C255.733 275.675 253.218 271.605 251.651 267.47L251.649 267.464C249.562 262.077 246.839 255.042 245.744 248.55C244.641 242.006 245.253 236.353 249.375 233.374C250.007 232.926 251.217 232.773 253.086 232.95C254.905 233.122 257.068 233.576 259.337 234.073C259.546 234.119 259.755 234.165 259.966 234.211C262.004 234.66 264.1 235.121 265.955 235.373C267.95 235.645 269.944 235.722 271.327 235.091C274.188 233.801 276.852 232.368 279.44 230.976C280.566 230.371 281.677 229.773 282.785 229.197C286.469 227.284 290.171 225.583 294.435 224.507C300.772 222.953 304.985 218.55 308.867 214.167C309.197 213.794 309.525 213.421 309.852 213.05C313.438 208.974 316.867 205.076 321.594 203.036L321.597 203.035C322.285 202.735 323.344 202.762 324.867 203.18C326.366 203.591 328.102 204.319 329.969 205.173C330.652 205.485 331.36 205.818 332.074 206.153C333.263 206.712 334.47 207.279 335.611 207.775C337.445 208.573 339.287 209.27 340.909 209.545L340.94 209.55L340.971 209.554C342.205 209.704 343.502 209.804 344.578 209.129L344.589 209.123L344.599 209.116C351.453 204.547 360.662 205.072 369.588 208.422L369.597 208.425L369.606 208.429C372.207 209.363 375.013 210.712 377.749 213.312C377.873 213.478 378.005 213.592 378.091 213.662L378.145 213.716C381.823 217.383 384.242 222.245 385.353 226.844C386.471 231.473 386.22 235.64 384.817 237.964L384.814 237.97C383.455 240.266 381.375 241.609 379.047 242.88C378.681 243.08 378.307 243.279 377.928 243.48C375.933 244.54 373.803 245.671 372.091 247.364C370.998 248.411 370.053 249.536 369.329 250.833C367.345 254.08 366.359 257.948 365.789 261.863C365.382 264.651 365.181 267.514 364.991 270.217C364.915 271.302 364.84 272.361 364.755 273.38C364.624 274.821 364.545 276.42 364.461 278.11C364.298 281.395 364.118 285.025 363.509 288.518C362.586 293.804 360.723 298.368 356.787 300.528Z" stroke="white" stroke-width="2" stroke-miterlimit="10"/>
<path d="M371.252 276.439L371.251 276.443C371.131 278.059 371.066 279.856 370.996 281.762C370.851 285.759 370.688 290.236 369.964 294.519C368.896 300.842 366.647 306.354 361.77 308.939C357.48 311.159 351.776 310.402 346.271 308.714C342.227 307.439 338.233 305.647 334.145 303.72C333.384 303.362 332.619 302.998 331.85 302.633C328.512 301.046 325.099 299.424 321.604 298.018C317.306 296.249 313.422 295.227 309.741 294.82L309.729 294.819C301.305 293.961 294.291 296.548 286.284 299.501C286.128 299.558 285.972 299.616 285.815 299.674L285.815 299.674C278.018 302.554 270.365 301.638 263.486 298.428C256.566 295.199 250.378 289.62 245.688 283.143C242.224 278.334 239.213 273.425 237.259 268.414L237.257 268.408C237.195 268.252 237.132 268.095 237.069 267.936C234.563 261.641 231.271 253.372 229.841 245.687C228.366 237.753 228.946 230.8 233.928 227.155C234.732 226.599 236.261 226.455 238.548 226.722C240.783 226.983 243.437 227.596 246.2 228.257C246.435 228.314 246.671 228.37 246.907 228.427C249.411 229.028 251.972 229.642 254.227 229.992C256.637 230.365 258.998 230.491 260.594 229.759L260.598 229.757C263.872 228.237 266.922 226.563 269.888 224.936C271.379 224.117 272.849 223.311 274.316 222.541C278.737 220.22 283.218 218.183 288.459 216.95L288.465 216.948C295.838 215.169 300.601 209.843 304.995 204.479C305.395 203.99 305.792 203.501 306.188 203.014C310.215 198.058 314.1 193.275 319.589 190.743L319.595 190.74C320.384 190.369 321.63 190.42 323.441 190.976C325.219 191.521 327.29 192.473 329.507 193.585C330.414 194.04 331.363 194.531 332.317 195.024C333.628 195.702 334.95 196.386 336.19 196.99C338.347 198.042 340.484 198.97 342.335 199.397C344.009 199.833 345.492 199.846 346.668 199.153L346.69 199.14L346.71 199.126C354.825 193.705 365.952 194.474 376.388 198.438C379.549 199.645 382.905 201.268 386.242 204.46C386.247 204.465 386.251 204.47 386.255 204.475C386.293 204.52 386.33 204.558 386.359 204.587C386.414 204.641 386.472 204.693 386.5 204.718C386.501 204.719 386.501 204.719 386.502 204.72L386.514 204.741L386.619 204.845C391.053 209.259 393.966 215.119 395.323 220.65C396.687 226.21 396.432 231.235 394.792 234.023C393.12 236.863 390.578 238.496 387.78 240.017C387.346 240.253 386.904 240.488 386.456 240.725C384.062 241.992 381.536 243.329 379.53 245.357C378.259 246.588 377.222 247.967 376.359 249.392L376.358 249.394C374.003 253.321 372.907 257.98 372.307 262.683C371.918 265.736 371.732 268.868 371.556 271.846C371.462 273.432 371.37 274.975 371.252 276.439Z" stroke="white" stroke-width="2" stroke-miterlimit="10"/>
<path d="M404.935 230.129L404.939 230.123C406.864 226.857 407.124 220.977 405.514 214.486C403.911 208.026 400.504 201.164 395.361 195.983L395.26 195.882L395.222 195.817C395.222 195.817 395.221 195.816 395.22 195.816L395.21 195.806C395.152 195.754 395.032 195.647 394.915 195.491C390.991 191.734 387.104 189.847 383.401 188.374C371.3 183.74 358.529 182.75 349.154 189.02C347.856 189.919 345.939 189.71 344.21 189.242C342.093 188.679 339.63 187.53 337.12 186.226C335.673 185.475 334.141 184.634 332.619 183.798C331.52 183.195 330.426 182.594 329.374 182.033C326.805 180.662 324.397 179.474 322.336 178.77C320.232 178.052 318.787 177.942 317.891 178.347C314.487 179.971 311.625 182.426 308.983 185.305C306.864 187.613 304.918 190.155 302.95 192.728C302.456 193.373 301.962 194.019 301.462 194.665C296.537 201.03 291.169 207.295 282.652 209.22L282.649 209.221C276.431 210.61 271.16 213.017 265.997 215.746C264.358 216.613 262.721 217.517 261.066 218.432C257.547 220.376 253.948 222.364 250.073 224.13M404.935 230.129L249.461 223.304M404.935 230.129C403.03 233.429 400.08 235.334 396.831 237.114C396.331 237.388 395.822 237.66 395.308 237.934C392.521 239.422 389.589 240.987 387.246 243.362M404.935 230.129L388.109 244.016M250.073 224.13C250.073 224.13 250.072 224.13 250.072 224.13L249.461 223.304M250.073 224.13C250.074 224.129 250.074 224.129 250.075 224.129L249.461 223.304M250.073 224.13C249.147 224.555 248.002 224.708 246.778 224.706C245.546 224.705 244.165 224.546 242.715 224.3C240.102 223.856 237.13 223.1 234.208 222.358C233.897 222.279 233.585 222.2 233.275 222.121C230.02 221.296 226.881 220.531 224.245 220.198C221.545 219.856 219.718 220.019 218.767 220.721L218.761 220.725L218.761 220.725C212.884 224.989 212.348 233.266 214.205 242.637C215.926 251.321 219.632 260.613 222.489 267.777C222.694 268.29 222.894 268.792 223.089 269.282C225.429 275.167 228.988 281.005 232.891 286.559M249.461 223.304C246.648 224.597 240.546 223.047 234.369 221.477C227.574 219.75 220.689 218 217.995 219.989C205.851 228.799 215.553 253.122 221.465 267.944C221.672 268.461 221.873 268.967 222.069 269.46C224.45 275.446 228.06 281.36 231.988 286.949M232.891 286.559C232.889 286.557 232.888 286.555 232.886 286.553L231.988 286.949M232.891 286.559C232.892 286.561 232.893 286.563 232.895 286.565L231.988 286.949M232.891 286.559C238.316 294.067 245.491 300.619 253.566 304.435C261.598 308.231 270.57 309.347 279.772 305.951M231.988 286.949C243.001 302.193 261.3 313.824 280.318 306.804M280.318 306.804L279.769 305.952C279.77 305.952 279.771 305.951 279.772 305.951M280.318 306.804C289.8 303.247 297.631 300.344 307.012 301.369M280.318 306.804L279.774 305.95C279.773 305.951 279.773 305.951 279.772 305.951M279.772 305.951C289.2 302.415 297.279 299.395 306.994 300.456M307.012 301.369L306.993 300.456C306.994 300.456 306.994 300.456 306.994 300.456M307.012 301.369C311.086 301.806 315.437 302.929 320.174 304.924M307.012 301.369L306.996 300.456C306.995 300.456 306.995 300.456 306.994 300.456M306.994 300.456C311.209 300.908 315.686 302.068 320.53 304.108M320.174 304.924L320.526 304.106C320.528 304.107 320.529 304.107 320.53 304.108M320.174 304.924L320.535 304.11C320.534 304.109 320.532 304.109 320.53 304.108M320.174 304.924L384.582 248.613M320.53 304.108C324.545 305.766 328.466 307.708 332.311 309.613C333.104 310.006 333.893 310.397 334.68 310.783C339.309 313.06 343.853 315.194 348.486 316.715C354.87 318.791 361.686 319.933 366.86 317.309C372.655 314.364 375.292 307.905 376.521 300.532C377.361 295.491 377.522 290.207 377.665 285.539C377.731 283.384 377.793 281.36 377.916 279.552C378.004 278.128 378.076 276.648 378.149 275.132C378.33 271.392 378.522 267.431 379.002 263.554C379.679 258.092 380.937 252.693 383.598 248.116M383.598 248.116C383.599 248.115 383.599 248.115 383.6 248.114L384.582 248.613M383.598 248.116C383.598 248.116 383.598 248.117 383.598 248.117L384.582 248.613M383.598 248.116C384.568 246.428 385.816 244.756 387.246 243.362M384.582 248.613C385.524 246.973 386.734 245.355 388.109 244.016M387.246 243.362C387.244 243.364 387.242 243.366 387.24 243.368L388.109 244.016M387.246 243.362C387.248 243.36 387.25 243.358 387.252 243.356L388.109 244.016" stroke="white" stroke-width="2" stroke-miterlimit="10"/>
<path d="M371.772 325.648L371.781 325.643C378.547 322.321 381.546 314.922 382.901 306.5C383.813 300.828 383.961 294.884 384.092 289.613C384.156 287.055 384.216 284.655 384.357 282.522C384.466 280.775 384.551 278.951 384.637 277.081C384.828 272.949 385.03 268.589 385.534 264.314C386.267 258.089 387.647 251.932 390.617 246.699C391.698 244.74 393.108 242.909 394.732 241.239C397.366 238.53 400.689 236.759 403.868 235.066C404.453 234.754 405.033 234.445 405.603 234.134C409.308 232.107 412.692 229.922 414.858 226.097L414.861 226.091L414.865 226.086C417.076 222.341 417.34 215.606 415.47 208.189C413.615 200.83 409.71 193.005 403.844 187.085C403.689 186.963 403.574 186.844 403.511 186.779L403.499 186.766C403.434 186.699 403.413 186.68 403.41 186.677L403.323 186.616L403.248 186.542C398.867 182.219 394.26 179.994 390.045 178.336C376.433 173.085 361.841 171.812 351.092 178.979L351.082 178.986L351.071 178.993C349.588 179.922 347.62 179.788 345.584 179.14C343.185 178.47 340.397 177.11 337.55 175.56C335.867 174.644 334.096 173.622 332.336 172.607C331.122 171.907 329.914 171.21 328.746 170.554C325.829 168.917 323.09 167.491 320.746 166.644C318.353 165.779 316.694 165.633 315.657 166.13C311.803 168.01 308.595 170.859 305.652 174.194C303.307 176.851 301.163 179.778 298.998 182.734C298.44 183.495 297.882 184.258 297.318 185.018C291.866 192.369 285.923 199.558 276.298 201.677L276.293 201.678C269.095 203.225 263.059 205.992 257.162 209.141C255.303 210.134 253.449 211.171 251.575 212.219C247.544 214.472 243.42 216.778 238.949 218.816M371.772 325.648L238.336 217.991M371.772 325.648C365.918 328.605 357.933 327.196 350.685 324.738C345.43 322.922 340.305 320.451 335.088 317.853C334.459 317.54 333.828 317.225 333.196 316.909C328.609 314.617 323.934 312.28 319.107 310.318M371.772 325.648L318.757 311.137M238.949 218.816C238.949 218.816 238.948 218.816 238.948 218.817L238.336 217.991M238.949 218.816C238.95 218.816 238.951 218.815 238.951 218.815L238.336 217.991M238.949 218.816C237.92 219.29 236.631 219.456 235.239 219.444C233.84 219.431 232.263 219.239 230.599 218.942C227.545 218.397 224.059 217.476 220.631 216.57C220.332 216.491 220.034 216.413 219.736 216.334C215.986 215.346 212.361 214.417 209.328 213.988C207.815 213.774 206.499 213.692 205.418 213.774C204.337 213.857 203.558 214.1 203.039 214.483L203.036 214.486C196.289 219.419 195.816 228.994 198.046 239.756C199.996 249.167 203.943 259.173 207.079 267.125C207.508 268.211 207.921 269.259 208.312 270.262L208.314 270.265C210.932 277.049 214.981 283.719 219.635 290.12L219.638 290.124C225.799 298.666 234.004 306.211 243.262 310.607C252.475 314.981 262.78 316.267 273.332 312.264L273.34 312.261C284.042 308.306 293.08 304.972 303.92 306.218M238.336 217.991C235.117 219.474 227.978 217.588 220.799 215.691C213.03 213.639 205.214 211.574 202.266 213.752C188.815 223.588 199.365 250.331 206.061 267.305C206.489 268.391 206.901 269.436 207.291 270.434C209.95 277.324 214.052 284.073 218.738 290.519C231.22 307.824 252.16 321.355 273.885 313.114C284.643 309.139 293.43 305.922 303.935 307.131M303.92 306.218C303.917 306.218 303.915 306.218 303.912 306.218L303.935 307.131M303.92 306.218C303.922 306.219 303.924 306.219 303.925 306.219L303.935 307.131M303.92 306.218C308.677 306.718 313.635 308.054 319.107 310.318M303.935 307.131C308.543 307.614 313.376 308.911 318.757 311.137M318.757 311.137L319.102 310.316C319.104 310.317 319.106 310.317 319.107 310.318M318.757 311.137L319.11 310.319C319.109 310.319 319.108 310.318 319.107 310.318" stroke="white" stroke-width="2" stroke-miterlimit="10"/>
<path d="M352.831 332.656L352.838 332.659C360.977 335.583 369.991 337.215 376.804 333.936C384.469 330.206 387.855 321.854 389.37 312.384C390.41 305.879 390.548 299.037 390.669 293.029C390.724 290.296 390.775 287.735 390.907 285.456M352.831 332.656L391.986 285.632M352.831 332.656C346.982 330.591 341.303 327.83 335.542 324.928C334.734 324.52 333.924 324.11 333.111 323.699C328.159 321.192 323.124 318.643 317.926 316.458L352.831 332.656ZM390.907 285.456C390.907 285.456 390.907 285.456 390.907 285.456L391.986 285.632M390.907 285.456C390.907 285.457 390.907 285.458 390.907 285.458L391.986 285.632M390.907 285.456C391.014 283.483 391.093 281.419 391.173 279.299C391.348 274.687 391.532 269.81 392.053 265.019C392.816 258.009 394.305 251.067 397.588 245.178L397.592 245.17C398.865 242.955 400.264 240.898 402.066 239.045M391.986 285.632C392.095 283.632 392.174 281.554 392.255 279.426C392.684 268.101 393.165 255.375 398.577 245.666C399.833 243.48 401.197 241.48 402.939 239.688M402.066 239.045C402.065 239.046 402.065 239.046 402.064 239.047L402.939 239.688M402.066 239.045C402.066 239.045 402.067 239.044 402.067 239.044L402.939 239.688M402.066 239.045C405.02 235.975 408.763 233.977 412.362 232.056C412.981 231.726 413.596 231.398 414.201 231.067C418.366 228.793 422.201 226.348 424.68 222.087M402.939 239.688C405.796 236.719 409.405 234.792 413.007 232.868C417.856 230.277 422.693 227.694 425.665 222.584M425.665 222.584L424.679 222.09C424.679 222.089 424.68 222.088 424.68 222.087M425.665 222.584C430.79 213.585 426.593 191.349 412.984 177.525M425.665 222.584L424.682 222.084C424.681 222.085 424.681 222.086 424.68 222.087M424.68 222.087C427.105 217.827 427.381 210.252 425.293 201.929C423.22 193.661 418.86 184.85 412.262 178.119M412.984 177.525L412.374 178.202C412.334 178.175 412.297 178.147 412.262 178.119M412.984 177.525C412.876 177.45 412.795 177.366 412.713 177.281C412.632 177.197 412.551 177.113 412.443 177.038C407.294 171.965 401.964 169.392 397.124 167.433M412.984 177.525L412.198 178.054C412.219 178.076 412.24 178.097 412.262 178.119M412.262 178.119C412.108 177.998 411.995 177.88 411.932 177.815L411.919 177.802C411.855 177.735 411.834 177.717 411.831 177.714L411.83 177.713L411.744 177.653L411.669 177.579C406.692 172.676 401.547 170.184 396.787 168.257M396.787 168.257C396.789 168.258 396.791 168.259 396.794 168.26L397.124 167.433M396.787 168.257C396.785 168.256 396.783 168.256 396.78 168.255L397.124 167.433M396.787 168.257C381.628 162.308 365.281 160.839 353.158 168.892M397.124 167.433C381.744 161.396 364.926 159.822 352.41 168.143M352.41 168.143L353.169 168.884C353.165 168.887 353.161 168.89 353.158 168.892M352.41 168.143C351.244 168.969 349.476 168.774 347.328 168.148M352.41 168.143L353.148 168.899C353.151 168.897 353.154 168.895 353.158 168.892M353.158 168.892C351.565 170.011 349.278 169.645 347.116 169.016L347.104 169.012C344.435 168.209 341.312 166.621 338.107 164.811C336.237 163.756 334.272 162.585 332.319 161.421C330.938 160.598 329.563 159.779 328.233 159.007C324.965 157.11 321.895 155.456 319.282 154.467C316.607 153.454 314.768 153.275 313.645 153.843L313.644 153.843C309.38 155.993 305.849 159.25 302.62 163.05C300.088 166.03 297.775 169.302 295.441 172.603C294.793 173.521 294.143 174.44 293.486 175.356C287.509 183.693 280.975 191.781 270.268 194.027L270.267 194.028C262.087 195.732 255.243 198.847 248.6 202.393C246.435 203.549 244.282 204.756 242.109 205.975C237.652 208.474 233.109 211.022 228.21 213.266M347.328 168.148L227.595 212.442M347.328 168.148C343.352 166.952 338.128 163.838 332.877 160.709C324.863 155.932 316.788 151.12 312.999 153.033C305.132 157 299.8 164.542 294.482 172.065C287.872 181.415 281.283 190.737 269.872 193.131L347.328 168.148ZM228.21 213.266C228.209 213.266 228.209 213.267 228.209 213.267L227.595 212.442M228.21 213.266C228.21 213.266 228.211 213.266 228.211 213.266L227.595 212.442M228.21 213.266C227.076 213.789 225.647 213.967 224.09 213.944C222.526 213.92 220.756 213.692 218.882 213.344C215.429 212.702 211.478 211.627 207.585 210.568C207.26 210.48 206.935 210.391 206.611 210.303C202.369 209.152 198.251 208.063 194.804 207.544C193.083 207.285 191.579 207.176 190.339 207.258C189.099 207.34 188.192 207.609 187.584 208.05M227.595 212.442C223.989 214.106 215.899 211.905 207.761 209.691C198.981 207.303 190.145 204.899 186.817 207.314M187.584 208.05C187.585 208.05 187.585 208.05 187.585 208.05L186.817 207.314M187.584 208.05L186.817 207.314M187.584 208.05L186.817 207.314M193.867 271.123L192.846 271.297L193.867 271.123C193.867 271.123 193.867 271.123 193.867 271.123Z" stroke="white" stroke-width="2" stroke-miterlimit="10"/>
<path d="M355.031 340.667L355.034 340.668C364.038 343.975 374.224 345.877 381.72 342.262L381.725 342.26C390.365 338.152 394.139 328.847 395.799 318.335C396.941 311.109 397.065 303.505 397.173 296.855C397.222 293.836 397.268 291.013 397.405 288.511L397.405 288.51C397.533 286.217 397.622 283.813 397.714 281.343C397.9 276.335 398.096 271.053 398.642 265.86C399.461 258.086 401.073 250.385 404.667 243.841L404.669 243.837C406.057 241.342 407.721 239.1 409.599 237.016L409.606 237.008L409.614 237.001C412.857 233.6 416.989 231.398 420.977 229.274C421.668 228.906 422.354 228.54 423.03 228.171C427.652 225.65 431.922 222.925 434.661 218.137C437.372 213.398 437.653 204.966 435.313 195.727C432.987 186.545 428.12 176.766 420.791 169.333C420.703 169.263 420.631 169.195 420.576 169.139C420.503 169.065 420.437 168.99 420.393 168.941L420.388 168.934C420.336 168.876 420.31 168.847 420.288 168.825C420.287 168.824 420.286 168.823 420.285 168.822L420.221 168.777L420.146 168.704C414.568 163.215 408.824 160.365 403.596 158.271C386.764 151.647 368.652 149.988 355.369 158.868C353.685 160.005 351.224 159.737 348.759 158.928C345.827 157.99 342.389 156.183 338.849 154.125C336.803 152.935 334.656 151.621 332.52 150.313C330.974 149.366 329.434 148.424 327.943 147.535C324.334 145.383 320.939 143.501 318.049 142.367C315.093 141.207 313.038 140.978 311.78 141.614C307.068 144.02 303.192 147.671 299.665 151.926C296.904 155.257 294.389 158.915 291.855 162.601C291.146 163.633 290.435 164.666 289.718 165.696C283.214 175.019 276.106 184.025 264.297 186.464L264.295 186.465C255.079 188.344 247.468 191.821 240.105 195.783C237.726 197.063 235.363 198.4 232.977 199.75C228.018 202.555 222.963 205.415 217.468 207.933M355.031 340.667L216.853 207.109M355.031 340.667C348.561 338.306 342.301 335.208 335.994 332C335.3 331.647 334.606 331.292 333.91 330.937C328.308 328.079 322.647 325.19 316.83 322.772M355.031 340.667L354.732 341.505C347.453 338.85 340.459 335.281 333.459 331.71C327.849 328.848 322.236 325.984 316.47 323.587M217.468 207.933C217.468 207.933 217.467 207.934 217.466 207.934L216.853 207.109M217.468 207.933C217.468 207.933 217.469 207.933 217.469 207.933L216.853 207.109M217.468 207.933C216.232 208.504 214.663 208.695 212.942 208.66C211.212 208.626 209.251 208.362 207.166 207.963C203.339 207.231 198.954 206.016 194.624 204.814C194.247 204.71 193.87 204.605 193.494 204.501C188.763 203.192 184.16 201.953 180.307 201.356C178.384 201.059 176.697 200.93 175.305 201.019C173.912 201.108 172.884 201.411 172.192 201.919L172.187 201.922C167.931 205.006 165.698 209.579 164.911 215.115C164.122 220.656 164.791 227.108 166.28 233.854C168.804 245.291 173.644 257.41 177.531 267.144C178.233 268.902 178.904 270.582 179.525 272.166M216.853 207.109C212.87 208.948 203.872 206.453 194.807 203.939C184.997 201.219 175.111 198.477 171.421 201.186C154.881 213.167 168.045 246.125 176.518 267.338C177.219 269.093 177.888 270.767 178.505 272.342M179.525 272.166C179.525 272.166 179.525 272.165 179.524 272.164L178.505 272.342M179.525 272.166C179.525 272.167 179.526 272.168 179.526 272.169L178.505 272.342M179.525 272.166C182.915 280.695 187.95 289.036 193.695 297.073M178.505 272.342C181.934 280.969 187.018 289.386 192.794 297.465M192.794 297.465L193.694 297.071C193.694 297.072 193.695 297.072 193.695 297.073M192.794 297.465C208.265 318.986 234.108 336.104 261.571 325.759M192.794 297.465L193.696 297.074C193.695 297.073 193.695 297.073 193.695 297.073M193.695 297.073C201.354 307.726 211.534 317.22 223.108 322.775C234.634 328.307 247.597 329.964 261.018 324.909M261.571 325.759L261.018 324.909C261.018 324.909 261.018 324.909 261.018 324.909M261.571 325.759C274.663 320.797 285.578 317.103 298.38 318.553M261.571 325.759L261.02 324.908C261.019 324.909 261.019 324.909 261.018 324.909M261.018 324.909C274.084 319.956 285.236 316.154 298.367 317.64M298.38 318.553L298.363 317.64C298.364 317.64 298.366 317.64 298.367 317.64M298.38 318.553C303.95 319.163 309.855 320.771 316.47 323.587M298.38 318.553L298.368 317.641C298.368 317.641 298.367 317.641 298.367 317.64M298.367 317.64C304.087 318.267 310.119 319.916 316.83 322.772M316.47 323.587L316.825 322.77C316.827 322.771 316.828 322.771 316.83 322.772M316.47 323.587L316.836 322.775C316.834 322.774 316.832 322.773 316.83 322.772" stroke="white" stroke-width="2" stroke-miterlimit="10"/>
<path d="M357.239 348.678L357.232 348.675C350.143 346.02 343.331 342.578 336.457 339.028C335.87 338.725 335.283 338.421 334.694 338.117C328.417 334.87 322.065 331.584 315.468 328.842C308.115 325.756 301.499 323.97 295.357 323.263C281.04 321.495 268.927 325.615 254.639 331.079L254.638 331.08C239.92 336.725 225.649 334.891 212.954 328.775C200.21 322.636 189.002 312.151 180.608 300.465L180.608 300.465C174.317 291.717 168.688 282.579 164.966 273.06L164.966 273.059C164.25 271.232 163.47 269.286 162.652 267.245C158.395 256.618 153.101 243.401 150.3 230.907C148.632 223.466 147.863 216.338 148.705 210.21C149.547 204.089 151.987 199.02 156.678 195.601C157.461 195.035 158.617 194.707 160.169 194.619C161.721 194.531 163.596 194.687 165.727 195.03C169.995 195.716 175.089 197.116 180.313 198.588C180.716 198.702 181.119 198.816 181.522 198.93C186.319 200.285 191.167 201.654 195.393 202.483C197.688 202.933 199.842 203.232 201.737 203.277C203.622 203.323 205.329 203.119 206.666 202.502C212.796 199.729 218.422 196.545 223.949 193.416C226.507 191.969 229.044 190.533 231.6 189.155C239.719 184.779 248.124 180.932 258.322 178.895L257.936 177.997L258.322 178.895C271.262 176.31 278.946 166.385 285.969 156.063C286.755 154.907 287.533 153.747 288.31 152.588C291.033 148.523 293.739 144.484 296.718 140.807C300.541 136.088 304.758 132.037 309.919 129.374L309.923 129.372C311.303 128.65 313.571 128.92 316.823 130.228C320.002 131.507 323.742 133.625 327.712 136.038C329.361 137.041 331.063 138.103 332.77 139.169C335.111 140.63 337.462 142.098 339.703 143.428C343.594 145.738 347.357 147.759 350.546 148.808C353.321 149.729 355.933 150.059 357.833 148.868L357.844 148.862L357.854 148.855C372.513 139.08 392.444 141.025 410.782 148.263C416.489 150.529 422.772 153.645 428.947 159.715L428.966 159.734L428.986 159.752C429.065 159.823 429.121 159.884 429.216 159.992L429.223 160C429.313 160.101 429.436 160.24 429.607 160.397C437.663 168.6 443.036 179.397 445.612 189.524C448.198 199.694 447.914 208.982 444.917 214.201C441.891 219.471 437.182 222.478 432.109 225.258C431.377 225.66 430.635 226.057 429.889 226.457C425.509 228.803 420.987 231.226 417.445 234.963C415.222 237.174 413.451 239.685 411.965 242.425C407.979 249.597 406.217 258.067 405.349 266.619C404.764 272.371 404.582 278.216 404.409 283.744C404.325 286.415 404.244 289.012 404.121 291.489C403.958 294.29 403.904 297.47 403.845 300.88C403.721 308.133 403.579 316.422 402.341 324.304C400.52 335.894 396.372 346.173 386.809 350.641C378.353 354.577 367.141 352.452 357.239 348.678Z" stroke="white" stroke-width="2" stroke-miterlimit="10"/>
<path d="M359.43 356.683L359.434 356.684C370.208 360.845 382.642 363.329 391.777 359.06L391.778 359.06C402.242 354.185 406.778 342.95 408.758 330.314C410.124 321.597 410.254 312.41 410.367 304.423C410.418 300.839 410.465 297.496 410.619 294.546M359.43 356.683L411.699 294.718M359.43 356.683C351.722 353.733 344.331 349.955 336.888 346.055C336.126 345.656 335.364 345.256 334.602 344.855C327.927 341.349 321.18 337.805 314.178 334.794L314.172 334.791C306.281 331.438 299.178 329.476 292.494 328.723L359.43 356.683ZM410.619 294.546L411.699 294.718M410.619 294.546C410.619 294.546 410.619 294.547 410.619 294.547L411.699 294.718M410.619 294.546C410.762 291.739 410.854 288.79 410.948 285.755C411.132 279.841 411.326 273.601 411.931 267.451C412.849 258.124 414.72 248.872 418.989 240.999L418.992 240.993L418.996 240.987C420.633 238.098 422.504 235.334 424.937 232.831M411.699 294.718C411.844 291.88 411.936 288.916 412.03 285.873C412.49 271.035 413.008 254.342 419.983 241.48C421.603 238.621 423.438 235.914 425.812 233.473M424.937 232.831C424.936 232.832 424.935 232.834 424.934 232.835L425.812 233.473M424.937 232.831C428.808 228.754 433.715 226.129 438.472 223.584C439.295 223.143 440.114 222.705 440.922 222.262C446.436 219.241 451.554 215.962 454.84 210.166L454.841 210.165C458.073 204.482 458.36 194.336 455.528 183.238C452.707 172.183 446.841 160.389 438.03 151.441M424.937 232.831C424.938 232.83 424.939 232.829 424.94 232.828L425.812 233.473M425.812 233.473C429.585 229.498 434.357 226.943 439.116 224.395C445.532 220.959 451.927 217.535 455.827 210.658C462.569 198.806 456.78 169.132 438.79 150.886M307.133 116.109C296.987 121.453 290.288 131.632 283.614 141.775C275.233 154.51 266.891 167.187 251.811 170.163C236.728 173.124 225.267 179.655 213.57 186.321C207.691 189.671 201.753 193.055 195.265 196.037C190.494 198.188 179.643 195.086 168.698 191.957C156.843 188.567 144.878 185.146 140.416 188.339M307.133 116.109L307.79 116.912C307.791 116.912 307.791 116.912 307.791 116.912M307.133 116.109L307.793 116.911C307.792 116.911 307.792 116.911 307.791 116.912M307.133 116.109C311.963 113.583 322.676 120.41 333.307 127.185C340.207 131.583 347.073 135.959 352.273 137.74M307.791 116.912C302.222 119.846 297.679 124.299 293.567 129.475C290.386 133.48 287.495 137.873 284.587 142.291C283.731 143.591 282.874 144.894 282.008 146.189C274.452 157.487 266.179 168.302 252.195 171.062L252.194 171.062C241.013 173.257 231.827 177.443 222.981 182.223C220.08 183.791 217.204 185.43 214.303 187.082C208.404 190.444 202.403 193.863 195.879 196.862L195.873 196.865C194.427 197.517 192.576 197.724 190.523 197.661C188.462 197.598 186.114 197.259 183.608 196.756C179.009 195.833 173.733 194.324 168.504 192.829C168.044 192.697 167.585 192.566 167.126 192.435C161.413 190.805 155.833 189.254 151.155 188.484C148.819 188.1 146.758 187.92 145.048 188.009C143.338 188.098 142.054 188.452 141.181 189.076M307.791 116.912C309.307 116.119 311.797 116.448 315.335 117.912C318.796 119.345 322.869 121.702 327.185 124.381C328.99 125.502 330.85 126.687 332.716 127.876C335.252 129.492 337.798 131.115 340.228 132.589C344.457 135.154 348.537 137.4 351.99 138.585M141.181 189.076C141.182 189.076 141.182 189.075 141.183 189.075L140.416 188.339M141.181 189.076C141.18 189.077 141.179 189.077 141.178 189.078L140.416 188.339M141.181 189.076C136.043 192.807 133.389 198.358 132.493 205.061C131.595 211.772 132.468 219.58 134.322 227.727C137.413 241.312 143.192 255.678 147.843 267.243C148.775 269.56 149.662 271.764 150.473 273.828C150.473 273.828 150.473 273.828 150.473 273.829L149.452 274.003C148.646 271.951 147.763 269.756 146.833 267.444C136.6 242.007 120.754 202.613 140.416 188.339M351.99 138.585C351.987 138.583 351.984 138.582 351.981 138.581L352.273 137.74M351.99 138.585C354.98 139.657 357.895 140.033 359.863 138.682M351.99 138.585C351.994 138.586 351.997 138.587 352 138.588L352.273 137.74M352.273 137.74C355.174 138.782 357.583 138.989 359.119 137.93C375.55 126.997 397.713 129.25 417.814 137.275M359.863 138.682C375.896 128.018 397.587 130.158 417.474 138.098M359.863 138.682C359.865 138.681 359.867 138.68 359.869 138.678L359.12 137.931L359.857 138.686C359.859 138.685 359.861 138.683 359.863 138.682ZM417.814 137.275L417.47 138.097C417.472 138.097 417.473 138.098 417.474 138.098M417.814 137.275L417.477 138.099C417.476 138.099 417.475 138.099 417.474 138.098M417.814 137.275C424.157 139.847 431.153 143.311 438.085 150.12M417.474 138.098C423.696 140.621 430.482 143.984 437.221 150.572M437.221 150.572C437.19 150.527 437.16 150.48 437.132 150.433L438.085 150.12M437.221 150.572C437.469 150.937 437.801 151.235 438.019 151.431L438.03 151.441M437.221 150.572C437.252 150.602 437.283 150.633 437.313 150.663L438.085 150.12M438.085 150.12L438.03 151.441M438.03 151.441C438.022 151.432 438.013 151.424 438.005 151.415L438.79 150.886M438.03 151.441L438.057 151.465L438.79 150.886M438.03 151.441L438.79 150.886M166.582 304.164C184.989 329.807 215.951 350.664 248.934 338.065C264.522 332.173 277.243 327.886 292.504 329.635L166.582 304.164Z" stroke="white" stroke-width="2" stroke-miterlimit="10"/>
<path d="M361.623 364.698L361.623 364.697C353.293 361.452 345.335 357.36 337.318 353.162C336.709 352.843 336.099 352.524 335.488 352.204C328.09 348.325 320.615 344.405 312.811 341.091L312.805 341.089C304.267 337.503 296.742 335.465 289.482 334.573L289.476 334.572C272.762 332.6 258.795 337.215 242.001 343.613L241.996 343.615C224.465 350.403 207.538 348.198 192.522 340.912C177.454 333.601 164.258 321.142 154.395 307.393L154.392 307.39C146.854 296.955 140.242 286.15 135.857 274.858L135.857 274.858C134.887 272.363 133.811 269.676 132.676 266.84C127.727 254.481 121.646 239.295 118.325 224.903C116.285 216.062 115.302 207.581 116.245 200.288C117.187 193 120.043 186.955 125.618 182.888C126.562 182.203 127.957 181.817 129.814 181.724C131.669 181.63 133.908 181.832 136.445 182.255C141.525 183.103 147.595 184.805 153.803 186.59C154.294 186.732 154.786 186.873 155.278 187.015C160.972 188.656 166.713 190.31 171.713 191.325C174.433 191.877 176.976 192.249 179.205 192.322C181.425 192.395 183.416 192.174 184.962 191.475L184.964 191.474C192.121 188.22 198.692 184.477 205.16 180.793C208.234 179.041 211.285 177.304 214.364 175.638C223.965 170.444 233.946 165.886 246.11 163.534C261.222 160.628 270.07 148.897 278.146 136.601C279.079 135.181 280.002 133.752 280.923 132.325C284.022 127.527 287.106 122.753 290.506 118.401C294.913 112.762 299.797 107.908 305.815 104.716C307.441 103.864 310.135 104.247 313.952 105.863C317.686 107.443 322.089 110.028 326.753 112.96C328.708 114.19 330.722 115.489 332.741 116.791C335.479 118.557 338.228 120.33 340.854 121.945C345.433 124.761 349.84 127.225 353.561 128.543L353.571 128.546L353.581 128.55C356.802 129.632 359.77 130.107 361.955 128.698L361.965 128.691C379.372 117.13 402.776 119.589 424.284 128.111C431.14 130.862 438.522 134.583 445.804 141.662C446.053 142.026 446.384 142.324 446.602 142.519L446.611 142.528C456.155 152.288 462.501 165.06 465.554 177.019C468.618 189.022 468.317 200.005 464.822 206.217C461.301 212.475 455.748 216.035 449.769 219.32C448.9 219.798 448.02 220.27 447.136 220.744C441.972 223.517 436.653 226.372 432.484 230.79L432.476 230.797C429.953 233.544 427.926 236.463 426.179 239.62L426.178 239.623C421.514 248.124 419.493 258.146 418.525 268.252C417.882 274.963 417.701 281.769 417.53 288.206C417.444 291.44 417.361 294.58 417.223 297.569C417.063 300.742 417.022 304.344 416.977 308.213C416.876 316.843 416.76 326.794 415.293 336.235C413.166 349.914 408.243 362.103 396.801 367.356L396.796 367.358C386.761 372.033 373.258 369.241 361.623 364.698ZM361.296 365.526C373.01 370.099 386.948 373.057 397.415 368.181L312.446 341.903C320.196 345.195 327.624 349.089 335.031 352.973C343.654 357.494 352.249 362 361.296 365.526Z" stroke="white" stroke-width="2" stroke-miterlimit="10"/>
<path d="M363.815 372.713L363.81 372.711C354.86 369.169 346.324 364.742 337.706 360.228C337.351 360.042 336.996 359.856 336.641 359.67C328.394 355.347 320.055 350.977 311.286 347.332C302.144 343.383 293.924 341.244 286.249 340.273L286.241 340.272C268.402 338.114 253.477 343.044 235.462 349.953L235.46 349.954C216.577 357.242 198.326 354.837 182.141 346.967C165.905 339.072 151.696 325.647 141.099 310.868C133.068 299.597 125.963 287.956 121.192 275.793L121.192 275.792C120.168 273.192 119.035 270.395 117.841 267.445C112.43 254.083 105.742 237.567 102.082 221.92C99.849 212.376 98.7593 203.215 99.7558 195.34C100.751 187.47 103.821 180.943 109.842 176.564C110.877 175.82 112.401 175.41 114.417 175.318C116.432 175.225 118.859 175.454 121.603 175.923C127.098 176.861 133.658 178.723 140.359 180.672C140.877 180.823 141.395 180.974 141.914 181.125C148.073 182.919 154.278 184.727 159.676 185.838C162.606 186.442 165.342 186.849 167.735 186.933C170.12 187.017 172.249 186.782 173.897 186.035L173.899 186.035C181.595 182.529 188.637 178.493 195.573 174.517C198.87 172.627 202.143 170.752 205.45 168.953C215.758 163.348 226.507 158.428 239.708 155.901C255.915 152.803 265.378 140.175 274.001 126.898C275.022 125.326 276.032 123.743 277.04 122.164C280.321 117.022 283.586 111.905 287.184 107.235C291.881 101.138 297.092 95.8803 303.521 92.4172C305.301 91.4638 308.231 91.8924 312.342 93.6521C316.368 95.3752 321.112 98.1959 326.129 101.392C328.251 102.745 330.437 104.173 332.627 105.605C335.552 107.518 338.486 109.436 341.29 111.185C346.209 114.253 350.933 116.933 354.91 118.361C358.401 119.616 361.556 119.999 363.835 118.571L363.845 118.564L363.856 118.557C382.425 106.173 407.698 108.792 430.76 118.019L430.763 118.02C438.291 121.013 446.239 125.018 454.037 132.765L454.058 132.787L454.081 132.807C454.195 132.909 454.325 133.036 454.479 133.186L454.488 133.195C454.621 133.324 454.773 133.472 454.917 133.603C465.218 144.11 472.058 157.881 475.357 170.77C478.666 183.701 478.363 195.542 474.633 202.218L474.632 202.219C470.852 209.003 464.864 212.844 458.428 216.375C457.489 216.891 456.537 217.4 455.582 217.913C450.029 220.888 444.324 223.946 439.865 228.693L439.86 228.699C437.179 231.608 434.94 234.819 433.088 238.235L433.086 238.24C428.194 247.424 426.091 258.217 425.087 269.093C424.433 276.171 424.243 283.343 424.062 290.143C423.966 293.768 423.873 297.288 423.713 300.63L423.713 300.632C423.562 303.952 423.526 307.716 423.488 311.757C423.4 321.12 423.298 331.971 421.702 342.25C419.416 356.976 414.105 370.121 401.762 375.781C390.982 380.703 376.351 377.724 363.815 372.713Z" stroke="white" stroke-width="2" stroke-miterlimit="10"/>
<path d="M366.008 380.718L366.009 380.719C379.407 386.113 395.108 389.401 406.788 384.072L406.79 384.071C420.112 378.033 425.81 363.934 428.236 348.154C429.937 337.089 430.008 325.396 430.07 315.334C430.096 311.056 430.121 307.074 430.268 303.559L430.268 303.557C430.42 300.069 430.507 296.402 430.596 292.624C430.769 285.274 430.953 277.506 431.652 269.83C432.713 258.189 434.967 246.627 440.223 236.771M366.008 380.718L441.219 237.247M366.008 380.718C356.441 376.882 347.353 372.111 338.206 367.233C337.602 366.911 336.997 366.588 336.392 366.265C327.86 361.711 319.246 357.113 310.203 353.211L310.199 353.209C300.418 349.03 291.713 346.716 283.494 345.698L283.491 345.697C264.424 343.39 248.385 348.574 229.248 355.962L229.247 355.963C208.929 363.832 189.356 361.279 172.018 352.849C154.628 344.394 139.432 329.994 128.073 314.137M366.008 380.718L283.492 346.608M440.223 236.771L441.219 237.247M440.223 236.771C440.223 236.771 440.223 236.771 440.222 236.771L441.219 237.247M440.223 236.771C442.182 233.092 444.579 229.72 447.463 226.528L447.469 226.522C452.235 221.359 458.378 218.064 464.367 214.851C465.341 214.329 466.312 213.808 467.272 213.282C474.166 209.503 480.603 205.403 484.671 198.138L484.671 198.137C488.686 190.983 488.967 178.295 485.385 164.443C481.812 150.623 474.444 135.848 463.423 124.573L463.418 124.568C463.27 124.415 463.134 124.282 462.984 124.136L462.979 124.131C462.835 123.991 462.678 123.838 462.507 123.661M441.219 237.247C443.149 233.623 445.51 230.301 448.355 227.152C453.021 222.098 459.024 218.876 465.016 215.66C472.965 211.393 480.895 207.137 485.66 198.627C493.964 183.83 486.585 146.937 464.212 124.047C464.05 123.879 463.901 123.734 463.752 123.589C463.603 123.444 463.454 123.299 463.292 123.131M462.507 123.661C462.51 123.664 462.512 123.667 462.515 123.67L463.292 123.131M462.507 123.661C454.116 115.34 445.633 111.071 437.629 107.907L437.62 107.904C413.005 97.9735 385.97 95.1582 366.024 108.435C363.671 110.025 360.147 109.489 356.543 108.195L356.533 108.191C352.291 106.629 347.242 103.732 341.977 100.417C338.977 98.5276 335.84 96.4589 332.713 94.3962C330.369 92.8505 328.031 91.3081 325.758 89.847C320.394 86.3979 315.321 83.3494 311.022 81.4787C306.634 79.569 303.499 79.0827 301.607 80.0966C294.741 83.8405 289.193 89.5054 284.201 96.062C280.383 101.076 276.923 106.566 273.449 112.078C272.376 113.781 271.3 115.487 270.213 117.181C261.07 131.43 251.045 144.938 233.795 148.211L233.795 148.211C219.609 150.896 208.052 156.164 196.982 162.171C193.385 164.123 189.828 166.161 186.246 168.212C178.848 172.449 171.344 176.747 163.16 180.482L163.158 180.482C161.409 181.277 159.14 181.523 156.59 181.426C154.03 181.329 151.1 180.882 147.957 180.224C142.178 179.014 135.533 177.055 128.929 175.108C128.359 174.94 127.79 174.772 127.221 174.605C120.024 172.487 112.971 170.462 107.066 169.438C104.116 168.926 101.504 168.674 99.3349 168.771C97.1638 168.867 95.5153 169.31 94.3957 170.123L94.3955 170.123C87.9253 174.815 84.6413 181.826 83.5895 190.277C82.5371 198.734 83.7289 208.573 86.1442 218.818C90.0835 235.527 97.2334 253.155 103.018 267.416C104.331 270.653 105.573 273.717 106.692 276.557M462.507 123.661C462.504 123.658 462.501 123.655 462.498 123.652L463.292 123.131M463.292 123.131C454.736 114.643 446.074 110.288 437.962 107.081C413.139 97.0672 385.629 94.1366 365.284 107.681C363.377 108.972 360.38 108.627 356.835 107.354C350.405 104.986 341.881 99.3636 333.32 93.7166C320.074 84.9792 306.74 76.1837 300.938 79.2993C288.554 86.0513 280.493 98.8415 272.467 111.576C262.3 127.707 252.19 143.749 233.42 147.311C214.382 150.914 200.067 159.114 185.509 167.453C178.133 171.678 170.694 175.939 162.548 179.656C156.627 182.344 142.937 178.308 129.134 174.239C114.199 169.836 99.1315 165.394 93.6289 169.387C69.3137 187.018 89.1313 235.874 102.011 267.626C103.321 270.856 104.559 273.909 105.672 276.734C110.868 289.868 118.57 302.512 127.172 314.529M283.492 346.608C264.757 344.341 248.95 349.419 229.807 356.81C188.543 372.792 150.037 346.449 127.172 314.529M283.492 346.608C291.576 347.609 300.157 349.887 309.831 354.021L283.492 346.608ZM127.172 314.529L128.073 314.137M127.172 314.529L106.692 276.557M128.073 314.137C119.501 302.161 111.849 289.592 106.692 276.557M128.073 314.137L106.692 276.557" stroke="white" stroke-width="2" stroke-miterlimit="10"/>
<path d="M436.813 306.699L436.813 306.702C436.663 310.394 436.638 314.579 436.612 319.076C436.55 329.812 436.478 342.329 434.652 354.173C432.06 370.988 425.974 386.044 411.752 392.489C399.328 398.064 382.609 394.557 368.191 388.723C358.005 384.592 348.338 379.486 338.624 374.321L337.873 373.922C328.429 368.9 318.924 363.847 308.939 359.686C298.625 355.243 289.438 352.754 280.681 351.69L280.678 351.69C260.546 349.292 243.499 354.695 223.136 362.597C201.411 370.983 180.515 368.228 162.023 359.211C143.477 350.167 127.294 334.791 115.2 317.903L115.2 317.902C106.03 305.128 97.8882 291.727 92.4533 277.791L92.453 277.79C91.1823 274.539 89.7564 271.013 88.2462 267.279C82.1401 252.181 74.6564 233.677 70.4772 216.117C67.8726 205.174 66.5688 194.66 67.6656 185.618C68.7618 176.582 72.2467 169.077 79.1528 164.05L79.1558 164.047C80.3463 163.173 82.1048 162.7 84.4188 162.599C86.731 162.499 89.5168 162.774 92.6623 163.327C98.9589 164.433 106.487 166.612 114.167 168.89C114.765 169.067 115.364 169.245 115.964 169.424C123.021 171.52 130.122 173.63 136.294 174.935C139.645 175.644 142.767 176.125 145.491 176.233C148.205 176.34 150.612 176.081 152.462 175.24L152.464 175.239C161.188 171.253 169.176 166.657 177.054 162.125C180.865 159.933 184.649 157.756 188.479 155.669C200.27 149.246 212.595 143.615 227.764 140.773C246.138 137.354 256.738 122.933 266.401 107.686C267.554 105.867 268.693 104.036 269.832 102.207C273.498 96.3144 277.152 90.4426 281.19 85.0804C286.477 78.0605 292.368 71.9939 299.683 67.9925L299.684 67.9922C301.703 66.886 305.043 67.4176 309.701 69.4735C314.264 71.4878 319.654 74.7703 325.356 78.4824C327.736 80.0317 330.181 81.6638 332.634 83.3003C335.999 85.5463 339.378 87.8008 342.617 89.8621C348.223 93.4302 353.604 96.5465 358.138 98.2345C362.066 99.7934 365.666 100.274 368.223 98.6337L368.229 98.6299L368.235 98.626C389.554 84.4545 418.301 87.5889 444.532 98.1003C453.082 101.533 462.106 106.071 471.094 114.977L471.115 114.997L471.137 115.017C471.369 115.226 471.661 115.528 471.997 115.875L472 115.878C483.726 127.918 491.587 143.693 495.407 158.441C499.235 173.223 498.951 186.767 494.649 194.402L494.647 194.406C490.32 202.198 483.472 206.57 476.136 210.591C475.1 211.158 474.053 211.72 473.001 212.283C466.64 215.693 460.115 219.19 455.021 224.686C451.911 227.961 449.409 231.595 447.35 235.522C441.755 245.988 439.378 258.309 438.268 270.726C437.548 278.776 437.358 286.926 437.178 294.651C437.081 298.819 436.986 302.862 436.813 306.699Z" stroke="white" stroke-width="2" stroke-miterlimit="10"/>
<path d="M463.459 223.057C468.753 217.326 475.533 213.679 482.294 210.042C491.279 205.209 500.232 200.393 505.624 190.726C515.073 173.783 506.445 131.107 480.351 105.347L296.989 54.6986C283.082 62.337 274.108 76.8879 265.171 91.3807C253.822 109.784 242.532 128.093 221.269 132.037M463.459 223.057L462.574 222.426M463.459 223.057C445.98 241.92 445.352 271.516 444.81 297.025C444.717 301.429 444.626 305.711 444.451 309.794M463.459 223.057L444.451 309.794M462.574 222.426C467.968 216.587 474.887 212.867 481.645 209.234C482.752 208.638 483.856 208.045 484.947 207.445C492.735 203.166 500.019 198.512 504.634 190.238C509.222 182.012 509.479 167.343 505.263 151.419C501.056 135.527 492.448 118.594 479.577 105.888L479.576 105.887C469.989 96.3987 460.371 91.5032 451.346 87.8998L451.341 87.8979C423.556 76.6827 393.044 73.3523 370.4 88.2921L370.398 88.2936C368.566 89.4943 366.133 89.5875 363.458 89.0153C360.796 88.4459 357.765 87.1941 354.536 85.542C348.076 82.2368 340.514 77.1636 333.021 72.1289L332.823 71.9957C325.355 66.977 317.961 62.0085 311.63 58.712C308.437 57.049 305.585 55.85 303.18 55.2745C300.779 54.6999 298.963 54.7772 297.664 55.4928L297.663 55.4933C289.924 59.7434 283.702 66.2012 278.122 73.6752C273.868 79.3727 270.019 85.6135 266.157 91.8761C264.948 93.8361 263.738 95.7981 262.514 97.7464C252.31 113.986 241.109 129.327 221.64 132.938M462.574 222.426C452.173 233.65 447.689 248.575 445.639 264.088C444.193 275.033 443.952 286.354 443.728 296.923C443.635 301.315 443.544 305.578 443.371 309.63L443.371 309.632C443.215 313.537 443.195 317.973 443.172 322.745C443.119 334.142 443.057 347.46 441.129 360.059C438.39 377.947 431.93 393.979 416.781 400.784C403.457 406.766 385.667 402.949 370.389 396.733L370.388 396.733C359.613 392.354 349.381 386.935 339.104 381.431C338.633 381.179 338.161 380.926 337.689 380.674C327.898 375.428 318.04 370.147 307.698 365.729L307.697 365.729C289.621 358.017 274.68 355.718 260.331 356.899C246.028 358.076 232.376 362.708 216.876 368.737C193.772 377.686 171.554 374.731 151.886 365.118C132.165 355.478 114.954 339.112 102.072 321.209L101.172 321.603L102.072 321.209C92.3072 307.639 83.6185 293.31 77.7434 278.41M462.574 222.426L221.269 132.037M221.64 132.938C221.64 132.938 221.64 132.938 221.64 132.938L221.269 132.037M221.64 132.938L221.269 132.037M221.64 132.938C205.486 135.938 192.352 141.917 179.8 148.742C175.681 150.982 171.612 153.321 167.517 155.674C159.178 160.468 150.728 165.325 141.514 169.541L141.513 169.541C139.562 170.43 137.016 170.703 134.135 170.586C131.244 170.468 127.926 169.953 124.36 169.194C117.764 167.792 110.167 165.523 102.616 163.268C102.011 163.087 101.405 162.906 100.801 162.726C92.6219 160.287 84.5987 157.949 77.8922 156.75C74.5417 156.151 71.5723 155.847 69.1079 155.944C66.641 156.041 64.7644 156.535 63.4968 157.463L63.4943 157.465C56.1405 162.805 52.4448 170.799 51.2969 180.424C50.1483 190.054 51.5594 201.255 54.35 212.905C58.8055 231.504 66.7329 251.088 73.1937 267.048C74.8313 271.093 76.3747 274.906 77.7434 278.41M77.7434 278.41C77.7436 278.411 77.7437 278.411 77.7439 278.412L76.7223 278.584L77.7428 278.409C77.743 278.409 77.7432 278.41 77.7434 278.41ZM444.451 309.794C444.297 313.653 444.277 318.059 444.255 322.812C444.126 350.398 443.942 389.684 417.387 401.612C403.628 407.789 385.408 403.804 370.043 397.554L444.451 309.794Z" stroke="white" stroke-width="2" stroke-miterlimit="10"/>
</g>
</svg>
